{"glyphs":{"0":{"ha":991,"x_min":57,"x_max":933,"o":"m 494 942 q 798 823 677 942 q 933 456 933 690 q 913 308 933 383 q 857 177 892 233 q 694 28 795 79 q 495 -16 605 -16 q 193 103 313 -16 q 103 233 135 161 q 57 463 57 340 q 133 749 57 629 q 296 897 193 845 q 494 942 381 941 m 494 785 q 323 689 387 785 q 264 469 264 600 q 323 248 264 337 q 495 153 387 153 q 667 248 604 153 q 726 465 726 337 q 667 689 726 602 q 494 785 604 783 z "},"1":{"ha":991,"x_min":299,"x_max":673,"o":"m 299 591 l 299 838 l 321 838 q 335 805 328 812 q 356 798 342 798 q 375 800 363 798 l 433 815 l 433 855 q 424 886 433 876 q 390 904 414 897 l 390 926 l 673 926 l 673 904 q 639 887 648 897 q 629 855 629 876 l 629 71 q 639 39 629 50 q 673 22 648 28 l 673 0 l 390 0 l 390 22 q 424 39 414 28 q 433 71 433 50 l 433 657 l 370 642 q 337 626 347 636 q 321 591 328 616 l 299 591 z "},"2":{"ha":991,"x_min":56,"x_max":935,"o":"m 298 167 l 864 167 q 896 176 885 167 q 913 210 907 186 l 935 210 l 935 -43 l 913 -43 q 896 -9 907 -19 q 864 0 885 0 l 143 0 q 96 -8 109 0 q 78 -43 84 -16 l 56 -43 q 56 0 56 -9 q 75 143 56 87 q 224 336 115 257 q 408 435 281 377 l 523 488 q 639 565 604 525 q 675 659 675 604 q 632 752 675 720 q 509 785 590 785 q 326 736 411 785 q 244 642 244 690 q 255 599 244 630 l 240 583 l 60 778 l 76 793 q 114 781 102 781 q 133 785 125 781 q 166 812 141 790 q 534 942 315 942 q 786 865 692 942 q 882 655 882 786 q 790 442 882 526 q 628 342 730 387 l 524 295 q 450 264 507 287 q 351 217 379 235 q 298 167 322 199 z "},"3":{"ha":991,"x_min":29,"x_max":935,"o":"m 781 486 q 935 281 935 428 q 802 52 935 130 q 512 -16 686 -16 q 176 56 327 -16 q 95 87 113 87 q 49 62 78 87 l 29 72 l 138 322 l 158 313 q 155 299 155 305 q 192 232 155 262 q 330 167 240 193 q 509 142 419 142 q 656 170 595 142 q 733 280 733 205 q 678 378 733 345 q 516 412 623 412 q 426 402 451 412 q 395 365 401 393 l 373 365 l 373 592 l 395 592 q 425 552 403 562 q 511 543 447 543 q 665 578 612 543 q 712 665 712 608 q 660 753 712 722 q 511 785 608 785 q 270 724 374 785 q 220 662 220 694 q 229 631 220 649 l 212 618 l 56 810 l 73 823 q 110 812 98 812 q 146 827 123 812 q 527 942 317 942 q 774 884 673 942 q 864 798 831 851 q 897 675 897 743 q 781 486 897 554 z "},"4":{"ha":991,"x_min":61,"x_max":958,"o":"m 640 156 l 152 156 q 100 148 113 156 q 82 112 87 140 l 61 112 l 61 309 l 521 825 q 551 875 551 860 q 516 904 551 899 l 516 926 l 879 926 l 879 904 q 845 886 854 897 q 836 855 836 876 l 836 309 l 886 309 q 918 318 907 309 q 936 351 929 328 l 958 351 l 958 112 l 936 112 q 918 146 929 136 q 886 156 907 156 l 836 156 l 836 71 q 845 39 836 50 q 879 22 854 28 l 879 0 l 596 0 l 596 22 q 630 39 621 28 q 640 71 640 50 l 640 156 m 640 309 l 640 715 l 282 309 l 640 309 z "},"5":{"ha":991,"x_min":39,"x_max":947,"o":"m 39 110 l 202 326 l 220 314 q 215 284 215 296 q 270 215 215 250 q 521 142 384 142 q 682 184 623 142 q 746 313 746 231 q 685 433 746 388 q 520 477 623 477 q 377 453 444 477 q 309 401 309 429 q 319 374 309 391 l 302 359 l 64 600 l 78 616 q 87 615 83 615 q 119 656 119 615 l 119 852 q 110 886 119 875 q 76 904 100 898 l 76 926 l 810 926 q 841 935 831 926 q 859 970 852 945 l 881 970 l 881 725 l 859 725 q 841 759 852 749 q 810 768 831 768 l 281 768 l 281 568 q 541 624 393 624 q 845 534 734 624 q 947 313 947 450 q 886 126 947 209 q 526 -16 780 -16 q 243 42 361 -16 q 148 95 214 56 q 96 112 119 112 q 56 96 83 112 l 39 110 z "},"6":{"ha":991,"x_min":65,"x_max":940,"o":"m 940 872 l 821 650 l 802 660 q 805 686 805 677 q 762 741 805 713 q 669 778 725 764 q 559 792 612 792 q 367 733 447 792 q 290 640 315 694 q 258 497 264 585 q 396 585 326 558 q 558 612 467 612 q 812 541 706 612 q 905 438 871 502 q 938 302 938 376 q 817 69 938 157 q 517 -16 699 -16 q 210 83 320 -16 q 100 250 136 148 q 65 454 65 347 q 199 804 65 670 q 557 942 337 942 q 697 928 635 942 q 842 878 760 913 q 886 865 870 865 q 909 873 898 865 q 922 884 918 881 l 940 872 m 522 457 q 353 406 418 457 q 299 297 299 364 q 353 187 299 230 q 523 136 418 136 q 692 187 628 136 q 747 295 747 230 q 692 406 747 363 q 522 457 629 456 z "},"7":{"ha":991,"x_min":58,"x_max":932,"o":"m 706 773 l 129 773 q 97 764 108 773 q 79 730 86 755 l 58 730 l 58 970 l 79 970 q 97 935 86 945 q 129 926 108 926 l 861 926 q 893 935 882 926 q 911 970 904 945 l 932 970 l 932 793 l 516 106 q 492 55 492 66 q 530 22 492 35 l 530 0 l 198 0 l 198 22 q 247 47 227 30 q 292 106 266 65 l 706 773 z "},"8":{"ha":991,"x_min":51,"x_max":940,"o":"m 733 495 q 940 277 940 441 q 852 85 940 167 q 496 -16 745 -16 q 215 33 326 -16 q 98 132 144 65 q 51 277 51 199 q 258 495 51 441 q 91 693 91 561 q 167 852 91 787 q 495 942 270 942 q 758 895 652 942 q 860 814 820 867 q 900 693 900 762 q 733 495 900 561 m 494 797 q 342 767 398 797 q 286 685 286 736 q 342 604 286 633 q 495 574 399 574 q 648 604 591 574 q 705 684 705 633 q 649 767 705 737 q 494 797 594 797 m 494 419 q 309 374 378 419 q 258 280 258 340 q 322 179 258 216 q 495 142 385 142 q 682 186 614 142 q 732 279 732 221 q 670 382 732 345 q 494 419 608 418 z "},"9":{"ha":991,"x_min":51,"x_max":926,"o":"m 51 54 l 171 275 l 190 266 q 186 239 186 249 q 229 185 186 212 q 322 148 265 163 q 431 134 379 134 q 624 193 544 134 q 702 286 676 232 q 733 429 727 340 q 594 341 665 368 q 432 314 524 314 q 180 384 285 314 q 86 488 120 424 q 54 623 54 549 q 175 857 54 769 q 473 942 293 942 q 781 843 670 942 q 891 676 855 778 q 926 472 926 578 q 792 122 926 256 q 433 -16 654 -16 q 294 -2 356 -16 q 149 48 233 12 q 105 61 121 61 q 82 52 94 61 q 69 42 73 45 l 51 54 m 468 789 q 299 739 364 789 q 245 629 245 696 q 299 519 245 562 q 468 469 363 469 q 637 519 573 469 q 692 627 692 562 q 637 739 692 696 q 468 789 574 789 z "}," ":{"ha":347,"x_min":0,"x_max":0,"o":""}," ":{"ha":347,"x_min":0,"x_max":0,"o":""},"!":{"ha":525,"x_min":120,"x_max":405,"o":"m 351 326 l 174 326 l 174 347 q 209 364 201 355 q 216 397 216 373 q 214 427 216 411 l 165 844 q 154 890 161 880 q 120 904 146 899 l 120 926 l 405 926 l 405 904 q 371 890 378 899 q 360 844 364 880 l 311 427 q 309 397 309 411 q 316 363 309 372 q 351 347 323 355 l 351 326 m 262 206 q 341 174 309 206 q 374 94 374 141 q 341 16 374 49 q 262 -16 308 -16 q 184 17 216 -16 q 151 96 151 50 q 183 173 151 141 q 262 206 216 205 z "},"\"":{"ha":771,"x_min":65,"x_max":707,"o":"m 273 545 l 273 525 l 113 525 l 113 545 q 145 560 139 551 q 152 595 152 568 q 150 616 152 606 l 105 852 q 95 894 100 886 q 65 906 89 901 l 65 926 l 321 926 l 321 906 q 292 894 297 901 q 281 852 286 886 l 237 616 q 235 593 235 606 q 241 560 235 568 q 273 545 248 551 m 659 545 l 659 525 l 498 525 l 498 545 q 531 560 524 551 q 537 595 537 568 q 535 616 537 606 l 490 852 q 480 894 486 886 q 450 906 474 901 l 450 926 l 707 926 l 707 906 q 677 894 683 901 q 667 852 671 886 l 622 616 q 620 593 620 606 q 626 560 620 568 q 659 545 633 551 z "},"#":{"ha":1065,"x_min":35,"x_max":1029,"o":"m 838 715 l 950 715 q 984 725 971 715 q 1008 760 997 735 l 1029 760 l 986 528 l 963 528 q 952 562 961 552 q 922 571 943 571 l 809 571 l 766 350 l 879 350 q 913 359 900 350 q 937 393 926 369 l 958 393 l 915 162 l 892 162 q 881 196 890 186 q 851 206 872 206 l 739 206 l 712 70 q 711 59 711 66 q 718 35 711 42 q 746 20 725 27 l 741 -3 l 511 -3 l 515 20 q 553 38 541 28 q 568 70 564 49 l 595 206 l 372 206 l 346 70 q 345 59 345 66 q 352 35 345 42 q 380 20 359 27 l 376 -3 l 145 -3 l 149 20 q 187 38 176 28 q 203 70 199 49 l 229 206 l 116 206 q 83 196 96 206 q 58 162 70 186 l 35 162 l 80 393 l 103 393 q 114 359 105 368 q 144 350 123 350 l 257 350 l 300 571 l 187 571 q 154 562 166 571 q 130 528 141 553 l 106 528 l 151 760 l 174 760 q 185 725 176 734 q 215 715 194 715 l 328 715 l 354 851 q 355 863 355 855 q 348 887 355 879 q 321 900 341 895 l 325 922 l 555 922 l 551 900 q 514 883 526 894 q 498 851 502 871 l 471 715 l 694 715 l 720 851 q 721 863 721 855 q 714 887 721 879 q 686 900 707 895 l 690 922 l 921 922 l 917 900 q 879 883 891 894 q 863 851 867 871 l 838 715 m 623 350 l 666 571 l 444 571 l 400 350 l 623 350 z "},"$":{"ha":991,"x_min":51,"x_max":941,"o":"m 557 568 l 581 566 q 840 490 751 551 q 912 404 886 458 q 939 289 939 350 q 885 126 939 195 q 729 20 831 57 q 557 -14 645 -10 l 557 -58 q 566 -90 557 -79 q 600 -108 576 -101 l 600 -130 l 412 -130 l 412 -108 q 446 -90 436 -101 q 455 -58 455 -79 l 455 -14 q 122 83 291 -2 q 98 90 107 90 q 71 75 90 90 l 51 85 l 151 312 l 171 303 q 171 294 171 296 q 214 227 171 257 q 326 174 258 197 q 455 145 394 151 l 455 376 q 307 397 356 386 q 214 429 257 408 q 117 521 151 460 q 85 647 85 576 q 184 857 85 778 q 455 942 283 937 l 455 975 q 446 1006 455 996 q 412 1024 436 1017 l 412 1046 l 601 1046 l 601 1024 q 566 1006 576 1017 q 557 975 557 996 l 557 939 q 687 914 621 934 q 860 850 754 895 q 888 842 878 842 q 921 858 902 842 l 941 848 l 829 630 l 810 641 q 811 652 811 646 q 724 730 811 686 q 557 780 637 774 l 557 568 m 455 579 l 455 783 q 362 767 399 779 q 296 726 321 753 q 272 667 272 699 q 289 624 272 643 q 335 597 306 605 q 455 579 376 585 m 557 365 l 557 144 q 666 172 624 152 q 743 275 743 210 q 729 316 743 297 q 694 342 715 334 q 557 365 656 355 z "},"%":{"ha":1227,"x_min":46,"x_max":1181,"o":"m 282 934 q 446 874 381 934 q 519 691 519 807 q 446 514 519 581 q 283 454 381 454 q 119 514 184 454 q 46 694 46 582 q 119 874 46 808 q 282 934 184 932 m 283 837 q 197 797 230 837 q 163 694 163 758 q 197 591 163 631 q 283 551 230 551 q 369 591 335 551 q 402 692 402 631 q 370 797 402 758 q 283 837 337 836 m 943 471 q 1107 412 1042 471 q 1181 229 1181 345 q 1107 52 1181 119 q 944 -8 1042 -8 q 781 52 846 -8 q 707 232 707 119 q 781 412 707 346 q 943 471 846 470 m 944 374 q 858 335 891 374 q 825 231 825 295 q 858 129 825 168 q 944 89 891 89 q 1030 129 996 89 q 1063 230 1063 168 q 1031 334 1063 295 q 944 374 998 374 m 936 808 l 391 103 q 366 57 366 71 q 407 22 366 30 l 407 0 l 165 0 l 165 22 q 220 43 200 27 q 287 119 240 59 l 821 808 q 851 863 851 846 q 810 904 851 893 l 810 926 l 1051 926 l 1051 904 q 1001 886 1017 899 q 936 808 985 873 z "},"&":{"ha":1074,"x_min":41,"x_max":1038,"o":"m 1038 637 l 1038 380 l 1016 380 q 996 414 1012 414 q 951 395 981 414 q 899 350 921 375 q 843 254 859 306 q 916 194 885 212 q 979 176 947 176 q 1016 208 1009 176 l 1038 208 l 1038 -5 q 918 5 1019 -1 q 822 41 880 7 q 724 118 765 74 q 397 -16 586 -16 q 151 54 249 -16 q 41 264 41 134 q 247 539 41 438 q 155 714 155 619 q 261 890 155 825 q 458 942 347 942 q 677 880 583 942 q 768 710 768 819 q 742 608 768 650 q 646 517 715 566 q 755 388 716 471 q 882 556 820 500 q 1038 637 945 611 m 463 804 q 373 779 412 804 q 323 687 323 747 q 363 604 323 637 q 463 571 403 571 q 554 596 515 571 q 604 686 604 629 q 565 770 604 738 q 463 804 526 803 m 415 456 q 283 412 339 456 q 229 301 229 368 q 282 186 229 231 q 420 142 336 142 q 568 185 507 142 q 629 287 629 228 q 611 348 629 315 q 564 404 592 382 q 415 456 501 455 z "},"'":{"ha":386,"x_min":65,"x_max":321,"o":"m 273 545 l 273 525 l 113 525 l 113 545 q 145 560 139 551 q 152 595 152 568 q 150 616 152 606 l 105 852 q 95 894 100 886 q 65 906 89 901 l 65 926 l 321 926 l 321 906 q 292 894 297 901 q 281 852 286 886 l 237 616 q 235 593 235 606 q 241 560 235 568 q 273 545 248 551 z "},"(":{"ha":463,"x_min":91,"x_max":452,"o":"m 377 1037 l 452 975 q 338 807 374 886 q 273 463 273 667 q 314 180 273 297 q 452 -50 355 64 l 377 -111 q 224 45 290 -49 q 91 463 91 237 q 168 788 91 633 q 377 1037 245 943 z "},")":{"ha":463,"x_min":11,"x_max":372,"o":"m 86 1037 q 238 881 173 975 q 372 463 372 688 q 295 138 372 292 q 86 -111 218 -17 l 11 -50 q 125 118 88 40 q 190 463 190 259 q 149 746 190 629 q 11 975 108 863 l 86 1037 z "},"*":{"ha":701,"x_min":65,"x_max":635,"o":"m 248 1019 l 453 1019 l 453 993 q 408 951 419 985 q 395 814 397 918 q 517 866 486 846 q 548 914 548 886 q 547 924 548 918 l 572 932 l 635 737 l 611 729 q 561 759 593 759 q 423 729 521 759 q 502 635 476 659 q 549 611 528 611 q 575 618 559 611 l 590 597 l 424 476 l 409 497 q 425 532 425 517 q 351 675 425 568 q 276 532 276 568 q 292 497 276 517 l 277 476 l 111 597 l 126 618 q 153 611 143 611 q 277 728 191 611 q 139 759 177 759 q 90 729 109 759 l 65 736 l 129 932 l 153 924 q 153 913 153 918 q 188 864 153 886 q 305 814 222 842 q 292 952 302 920 q 248 993 281 985 l 248 1019 z "},"+":{"ha":1065,"x_min":159,"x_max":906,"o":"m 466 397 l 224 397 q 195 387 205 397 q 178 353 184 378 l 159 353 l 159 573 l 179 573 q 195 539 184 549 q 224 530 205 530 l 466 530 l 466 771 q 456 800 466 790 q 422 816 447 810 l 422 836 l 642 836 l 642 817 q 608 800 618 810 q 599 771 599 791 l 599 530 l 841 530 q 870 539 860 530 q 886 573 880 549 l 906 573 l 906 353 l 886 353 q 870 387 880 378 q 841 397 860 397 l 599 397 l 599 155 q 608 125 599 136 q 642 109 618 115 l 642 90 l 422 90 l 422 110 q 456 125 447 115 q 466 155 466 136 l 466 397 z "},",":{"ha":426,"x_min":102,"x_max":324,"o":"m 134 -170 q 214 -98 189 -133 q 248 -9 238 -64 q 201 -16 216 -16 q 129 15 156 -16 q 102 96 102 46 q 129 176 102 146 q 202 206 157 206 q 296 156 263 206 q 324 47 324 111 q 166 -213 324 -102 l 134 -170 z "},"-":{"ha":309,"x_min":0,"x_max":309,"o":"m 309 497 l 309 262 l 287 262 q 269 296 280 287 q 237 306 258 306 l 71 306 q 39 296 50 306 q 22 262 28 286 l 0 262 l 0 497 l 22 497 q 39 463 28 473 q 71 453 50 453 l 237 453 q 269 463 258 453 q 287 497 280 472 l 309 497 z "},".":{"ha":426,"x_min":102,"x_max":324,"o":"m 213 206 q 292 174 260 206 q 324 94 324 141 q 291 16 324 49 q 213 -16 258 -16 q 134 17 167 -16 q 102 96 102 50 q 134 173 102 141 q 213 206 166 205 z "},"/":{"ha":1055,"x_min":46,"x_max":1008,"o":"m 893 808 l 348 103 q 323 57 323 71 q 363 22 323 30 l 363 0 l 46 0 l 46 22 q 101 43 81 27 q 168 119 121 59 l 702 808 q 732 863 732 846 q 691 904 732 893 l 691 926 l 1008 926 l 1008 904 q 958 886 974 899 q 893 808 942 873 z "},":":{"ha":426,"x_min":102,"x_max":324,"o":"m 213 206 q 292 174 260 206 q 324 94 324 141 q 291 16 324 49 q 213 -16 258 -16 q 134 17 167 -16 q 102 96 102 50 q 134 173 102 141 q 213 206 166 205 m 213 776 q 292 743 260 776 q 324 664 324 711 q 291 586 324 618 q 213 553 258 553 q 134 586 167 553 q 102 665 102 619 q 134 743 102 711 q 213 776 166 775 z "},";":{"ha":426,"x_min":102,"x_max":324,"o":"m 134 -170 q 214 -98 189 -133 q 248 -9 238 -64 q 201 -16 216 -16 q 129 15 156 -16 q 102 96 102 46 q 129 176 102 146 q 202 206 157 206 q 296 156 263 206 q 324 47 324 111 q 166 -213 324 -102 l 134 -170 m 213 776 q 292 743 260 776 q 324 664 324 711 q 291 586 324 618 q 213 553 258 553 q 134 586 167 553 q 102 665 102 619 q 134 743 102 711 q 213 776 166 775 z "},"<":{"ha":694,"x_min":46,"x_max":648,"o":"m 648 859 l 648 663 l 254 463 l 648 263 l 648 68 l 46 381 l 46 546 l 648 859 z "},"=":{"ha":1065,"x_min":159,"x_max":906,"o":"m 159 511 l 159 730 l 179 730 q 195 696 184 706 q 224 687 205 687 l 841 687 q 870 696 860 687 q 886 730 880 706 l 906 730 l 906 511 l 886 511 q 870 545 880 535 q 841 554 860 554 l 224 554 q 195 545 204 554 q 178 511 185 535 l 159 511 m 159 195 l 159 415 l 179 415 q 195 382 184 391 q 224 372 205 372 l 841 372 q 870 381 860 372 q 886 415 880 391 l 906 415 l 906 195 l 886 195 q 870 230 880 220 q 841 239 860 239 l 224 239 q 195 230 204 239 q 178 195 185 220 l 159 195 z "},">":{"ha":694,"x_min":47,"x_max":648,"o":"m 47 859 l 648 546 l 648 381 l 47 68 l 47 263 l 440 463 l 47 663 l 47 859 z "},"?":{"ha":678,"x_min":28,"x_max":595,"o":"m 144 665 l 28 836 l 45 848 q 74 838 66 838 q 132 865 90 838 q 246 925 196 907 q 353 942 296 942 q 510 898 447 942 q 595 736 595 839 q 568 634 595 683 q 474 520 541 585 q 414 449 428 475 q 400 381 400 422 q 408 355 400 363 q 439 340 416 347 l 439 319 l 216 319 l 216 340 q 252 363 243 349 q 269 425 261 377 q 289 494 276 469 q 345 572 302 519 q 396 646 382 620 q 409 701 409 672 q 380 771 409 745 q 303 798 351 798 q 180 747 231 798 q 157 700 157 722 q 163 677 157 692 l 144 665 m 339 206 q 418 174 386 206 q 450 94 450 141 q 417 16 450 49 q 339 -16 385 -16 q 260 17 293 -16 q 228 96 228 50 q 260 173 228 141 q 339 206 292 205 z "},"@":{"ha":1141,"x_min":74,"x_max":1067,"o":"m 864 656 l 787 345 q 785 331 785 338 q 827 300 785 300 q 907 334 865 300 q 950 405 934 355 q 966 513 966 454 q 877 726 966 642 q 737 813 817 783 q 593 840 665 840 q 377 781 483 840 q 217 629 270 720 q 174 465 174 555 q 227 273 174 364 q 587 86 334 86 q 699 96 635 86 q 801 120 762 106 q 817 141 817 125 q 817 152 817 146 l 833 156 l 878 -3 l 862 -7 q 825 26 845 26 q 802 22 817 26 q 570 -14 663 -14 q 231 106 370 -14 q 74 453 74 241 q 150 718 74 602 q 382 900 231 842 q 600 940 487 940 q 941 818 803 940 q 1067 537 1067 707 q 970 294 1067 383 q 839 235 905 235 q 756 253 788 235 q 698 316 725 271 q 600 269 658 286 q 481 251 542 251 q 346 292 397 251 q 289 416 289 338 q 353 574 289 504 q 458 648 395 621 q 591 674 522 674 q 757 608 686 674 l 772 656 l 864 656 m 571 588 q 454 551 503 588 q 394 437 397 507 q 423 365 392 393 q 505 337 454 337 q 650 378 593 337 q 707 475 707 420 q 672 558 707 529 q 571 588 637 587 z "},"A":{"ha":1130,"x_min":5,"x_max":1135,"o":"m 762 236 l 341 236 l 279 106 q 266 63 266 79 q 311 22 266 33 l 311 0 l 5 0 l 5 22 q 46 41 32 27 q 79 94 60 54 l 419 805 q 435 859 435 839 q 396 904 435 890 l 396 926 l 724 926 l 724 904 q 684 864 684 892 q 697 819 684 844 l 1050 106 q 1089 44 1072 60 q 1135 22 1106 27 l 1135 0 l 794 0 l 794 22 q 839 64 839 29 q 825 106 839 78 l 762 236 m 703 363 l 553 692 l 401 363 l 703 363 z "},"B":{"ha":1120,"x_min":83,"x_max":1064,"o":"m 908 485 q 1064 267 1064 426 q 973 68 1064 140 q 866 16 927 32 q 716 0 806 0 l 83 0 l 83 22 q 117 39 108 28 q 127 71 127 50 l 127 854 q 117 886 127 876 q 83 904 108 897 l 83 926 l 710 926 q 855 912 800 926 q 951 866 910 899 q 1034 680 1034 802 q 908 485 1034 545 m 329 557 l 684 557 q 796 581 764 557 q 832 665 832 608 q 798 748 832 724 q 684 773 764 773 l 329 773 l 329 557 m 329 153 l 672 153 q 810 179 768 153 q 858 279 858 210 q 810 378 858 347 q 672 405 768 405 l 329 405 l 329 153 z "},"C":{"ha":1165,"x_min":62,"x_max":1109,"o":"m 981 318 l 1109 125 l 1092 113 q 1061 130 1073 130 q 992 98 1048 130 q 796 7 876 31 q 606 -16 716 -16 q 247 87 387 -16 q 117 237 164 148 q 62 463 62 340 q 160 755 62 631 q 607 942 308 942 q 795 919 717 942 q 992 828 874 896 q 1061 796 1048 796 q 1092 814 1073 796 l 1109 802 l 981 608 l 962 621 q 964 639 964 631 q 947 676 964 659 q 886 718 930 693 q 632 785 766 785 q 379 706 473 785 q 268 463 268 613 q 379 220 268 313 q 632 141 473 141 q 886 209 766 141 q 947 251 930 233 q 964 288 964 268 q 962 305 964 295 l 981 318 z "},"D":{"ha":1164,"x_min":83,"x_max":1102,"o":"m 127 71 l 127 854 q 117 886 127 876 q 83 904 108 897 l 83 926 l 600 926 q 860 887 769 926 q 1053 701 990 831 q 1102 463 1102 600 q 955 98 1102 224 q 810 23 893 45 q 600 0 728 0 l 83 0 l 83 22 q 117 39 108 28 q 127 71 127 50 m 329 153 l 583 153 q 765 186 704 153 q 896 463 896 257 q 825 692 896 612 q 730 754 786 736 q 583 773 675 773 l 329 773 l 329 153 z "},"E":{"ha":1055,"x_min":83,"x_max":995,"o":"m 329 406 l 329 153 l 924 153 q 956 162 945 153 q 973 196 966 172 l 995 196 l 995 -43 l 973 -43 q 956 -9 966 -19 q 924 0 945 0 l 83 0 l 83 22 q 117 39 108 28 q 127 71 127 50 l 127 854 q 117 886 127 876 q 83 904 108 897 l 83 926 l 908 926 q 939 936 928 926 q 957 970 950 945 l 979 970 l 979 730 l 957 730 q 939 764 950 754 q 908 773 928 773 l 329 773 l 329 553 l 705 553 q 736 563 725 553 q 753 597 747 572 l 775 597 l 775 363 l 753 363 q 736 396 747 387 q 705 406 725 406 l 329 406 z "},"F":{"ha":1010,"x_min":83,"x_max":973,"o":"m 329 405 l 329 71 q 339 39 329 50 q 372 22 349 28 l 372 0 l 83 0 l 83 22 q 117 39 108 28 q 127 71 127 50 l 127 854 q 117 886 127 876 q 83 904 108 897 l 83 926 l 903 926 q 934 935 923 926 q 951 970 945 945 l 973 970 l 973 730 l 951 730 q 934 764 945 755 q 903 773 923 773 l 329 773 l 329 552 l 704 552 q 736 562 725 552 q 753 596 747 572 l 775 596 l 775 362 l 753 362 q 736 395 747 386 q 704 405 725 405 l 329 405 z "},"G":{"ha":1192,"x_min":62,"x_max":1118,"o":"m 907 333 l 678 333 q 647 323 657 333 q 629 290 636 314 l 608 290 l 608 505 l 629 505 q 647 471 636 480 q 678 462 657 462 l 1118 462 l 1118 440 q 1083 422 1093 433 q 1074 391 1074 412 l 1074 201 q 1083 169 1074 180 q 1118 151 1093 158 l 1118 134 q 606 -16 854 -16 q 240 90 382 -16 q 62 463 62 224 q 220 817 62 686 q 621 942 371 942 q 770 927 700 942 q 930 878 840 913 q 996 860 976 860 q 1029 876 1010 860 l 1048 865 l 939 644 l 920 654 q 913 686 919 676 q 889 710 908 696 q 768 763 848 741 q 616 785 688 785 q 376 704 471 785 q 268 460 268 612 q 373 224 268 314 q 627 141 469 141 q 778 159 703 141 q 907 207 852 176 l 907 333 z "},"H":{"ha":1192,"x_min":83,"x_max":1108,"o":"m 863 404 l 329 404 l 329 71 q 339 39 329 50 q 372 22 349 28 l 372 0 l 83 0 l 83 22 q 117 39 108 28 q 127 71 127 50 l 127 855 q 117 886 127 876 q 83 904 108 897 l 83 926 l 372 926 l 372 904 q 338 887 348 898 q 329 855 329 876 l 329 557 l 863 557 l 863 855 q 853 887 863 876 q 819 904 844 898 l 819 926 l 1108 926 l 1108 904 q 1074 886 1084 897 q 1065 855 1065 876 l 1065 71 q 1074 39 1065 50 q 1108 22 1084 28 l 1108 0 l 819 0 l 819 22 q 853 39 843 28 q 863 71 863 50 l 863 404 z "},"I":{"ha":455,"x_min":83,"x_max":372,"o":"m 127 71 l 127 855 q 117 886 127 876 q 83 904 108 897 l 83 926 l 372 926 l 372 904 q 338 887 348 898 q 329 855 329 876 l 329 71 q 339 39 329 50 q 372 22 349 28 l 372 0 l 83 0 l 83 22 q 117 39 108 28 q 127 71 127 50 z "},"J":{"ha":840,"x_min":4,"x_max":774,"o":"m 4 35 l 91 270 l 111 262 q 111 249 111 254 q 145 197 111 221 q 243 157 182 174 q 361 141 304 141 q 493 182 452 141 q 522 232 514 203 q 529 319 529 261 l 529 854 q 519 886 529 876 q 486 904 510 897 l 486 926 l 774 926 l 774 904 q 741 886 750 897 q 731 854 731 876 l 731 309 q 694 115 731 175 q 577 18 654 52 q 397 -16 500 -16 q 294 -8 338 -16 q 153 28 251 -1 q 66 46 92 46 q 24 27 43 46 l 4 35 z "},"K":{"ha":1114,"x_min":83,"x_max":1099,"o":"m 468 433 l 329 319 l 329 71 q 339 39 329 50 q 372 22 349 28 l 372 0 l 83 0 l 83 22 q 117 39 108 28 q 127 71 127 50 l 127 855 q 117 886 127 876 q 83 904 108 897 l 83 926 l 372 926 l 372 904 q 338 887 348 898 q 329 855 329 876 l 329 531 l 710 842 q 736 877 736 864 q 697 904 736 897 l 697 926 l 1076 926 l 1076 904 q 1042 893 1052 899 q 983 847 1031 887 l 930 804 l 616 551 l 972 121 q 1044 44 1022 62 q 1099 22 1066 27 l 1099 0 l 738 0 l 738 22 q 774 47 774 29 q 741 98 774 57 l 468 433 z "},"L":{"ha":983,"x_min":83,"x_max":969,"o":"m 329 153 l 898 153 q 930 162 919 153 q 947 196 941 172 l 969 196 l 969 -43 l 947 -43 q 930 -9 941 -19 q 898 0 919 0 l 83 0 l 83 22 q 117 39 108 28 q 127 71 127 50 l 127 854 q 117 886 127 876 q 83 904 108 897 l 83 926 l 372 926 l 372 904 q 338 887 348 898 q 329 854 329 876 l 329 153 z "},"M":{"ha":1342,"x_min":83,"x_max":1259,"o":"m 653 13 l 312 640 l 312 71 q 321 39 312 50 q 355 22 331 28 l 355 0 l 83 0 l 83 22 q 117 39 108 28 q 127 71 127 50 l 127 855 q 117 886 127 876 q 83 904 108 897 l 83 926 l 440 926 l 440 904 q 408 867 408 896 q 418 836 408 853 l 670 370 l 926 827 q 943 873 943 859 q 909 904 943 901 l 909 926 l 1259 926 l 1259 904 q 1225 886 1234 897 q 1215 855 1215 876 l 1215 71 q 1225 39 1215 50 q 1259 22 1234 28 l 1259 0 l 970 0 l 970 22 q 1003 39 994 28 q 1013 71 1013 50 l 1013 640 l 653 13 z "},"N":{"ha":1211,"x_min":83,"x_max":1127,"o":"m 312 634 l 312 71 q 321 39 312 50 q 355 22 331 28 l 355 0 l 83 0 l 83 22 q 117 39 108 28 q 127 71 127 50 l 127 855 q 117 886 127 876 q 83 904 108 897 l 83 926 l 398 926 l 398 904 q 369 873 369 897 q 388 837 369 857 l 899 306 l 899 855 q 889 886 899 876 q 855 904 880 897 l 855 926 l 1127 926 l 1127 904 q 1093 886 1103 897 q 1084 855 1084 876 l 1084 71 q 1093 39 1084 50 q 1127 22 1103 28 l 1127 0 l 836 0 l 836 22 q 864 51 864 28 q 831 98 864 64 l 312 634 z "},"O":{"ha":1188,"x_min":62,"x_max":1126,"o":"m 592 942 q 976 811 834 942 q 1126 457 1126 674 q 1054 209 1126 324 q 593 -16 913 -16 q 212 115 353 -16 q 96 282 136 184 q 62 463 62 368 q 133 718 62 602 q 592 942 269 938 m 593 785 q 372 707 460 785 q 268 463 268 614 q 372 220 268 313 q 594 141 460 141 q 815 220 728 141 q 895 334 867 267 q 920 459 920 395 q 815 707 920 616 q 593 785 726 784 z "},"P":{"ha":1063,"x_min":83,"x_max":1026,"o":"m 329 376 l 329 71 q 339 39 329 50 q 372 22 349 28 l 372 0 l 83 0 l 83 22 q 117 39 108 28 q 127 71 127 50 l 127 854 q 117 886 127 876 q 83 904 108 897 l 83 926 l 661 926 q 822 912 762 926 q 926 865 881 899 q 1000 774 973 831 q 1026 651 1026 716 q 976 487 1026 557 q 861 401 932 427 q 661 376 789 376 l 329 376 m 329 528 l 637 528 q 767 548 730 528 q 805 589 791 561 q 820 651 820 617 q 805 712 820 684 q 767 753 791 741 q 637 773 730 773 l 329 773 l 329 528 z "},"Q":{"ha":1188,"x_min":62,"x_max":1152,"o":"m 981 119 l 1053 45 q 1086 13 1078 19 q 1106 7 1095 7 q 1137 16 1116 7 l 1152 0 l 954 -180 l 939 -164 q 952 -131 952 -142 q 914 -73 952 -119 l 834 24 q 590 -16 734 -16 q 212 115 353 -16 q 96 282 136 184 q 62 463 62 368 q 134 717 62 602 q 594 942 273 942 q 976 811 835 942 q 1091 644 1052 741 q 1126 463 1126 558 q 981 119 1126 259 m 848 254 q 920 464 920 344 q 815 707 920 614 q 594 785 728 785 q 372 707 460 785 q 268 463 268 613 q 372 220 268 313 q 595 141 460 141 q 720 163 659 141 q 707 179 712 172 q 537 294 635 271 l 537 313 q 648 351 586 351 q 738 330 693 351 q 848 254 782 308 z "},"R":{"ha":1123,"x_min":83,"x_max":1095,"o":"m 329 378 l 329 71 q 339 39 329 50 q 372 22 349 28 l 372 0 l 83 0 l 83 22 q 117 39 108 28 q 127 71 127 50 l 127 854 q 117 886 127 876 q 83 904 108 897 l 83 926 l 663 926 q 830 913 768 926 q 939 871 892 901 q 1019 775 992 836 q 1044 650 1044 717 q 792 385 1044 424 l 972 130 q 1041 43 1019 62 q 1095 22 1063 24 l 1095 0 l 760 0 l 760 22 q 795 46 795 27 q 763 105 795 58 l 576 378 l 329 378 m 329 530 l 641 530 q 739 534 710 530 q 791 551 767 538 q 842 652 842 579 q 791 752 842 724 q 739 769 766 766 q 641 773 711 773 l 329 773 l 329 530 z "},"S":{"ha":1000,"x_min":56,"x_max":945,"o":"m 945 848 l 834 630 l 815 641 q 816 652 816 648 q 777 701 816 675 q 493 785 656 785 q 366 768 421 785 q 301 727 326 754 q 277 668 277 700 q 340 597 277 616 q 479 576 372 587 l 586 566 q 740 538 681 555 q 844 488 798 520 q 917 401 890 455 q 943 285 943 347 q 880 111 943 187 q 703 9 823 42 q 511 -16 614 -16 q 149 72 328 -16 q 103 90 111 90 q 75 75 94 90 l 56 85 l 156 312 l 176 302 q 176 294 176 296 q 205 237 176 263 q 341 170 249 198 q 516 141 433 141 q 670 172 606 141 q 726 217 705 189 q 747 275 747 245 q 698 341 747 321 q 558 366 663 355 l 454 377 q 305 398 349 388 q 218 429 262 408 q 121 521 157 460 q 90 647 90 576 q 170 841 90 764 q 488 942 276 942 q 653 924 576 942 q 844 858 730 906 q 892 842 884 842 q 926 858 907 842 l 945 848 z "},"T":{"ha":937,"x_min":9,"x_max":928,"o":"m 570 773 l 570 71 q 579 39 570 50 q 613 22 589 28 l 613 0 l 324 0 l 324 22 q 358 39 349 28 q 368 71 368 50 l 368 773 l 80 773 q 49 764 60 773 q 31 730 38 755 l 9 730 l 9 970 l 31 970 q 49 935 39 945 q 80 926 60 926 l 857 926 q 888 935 878 926 q 906 970 899 945 l 928 970 l 928 730 l 906 730 q 888 764 899 755 q 857 773 878 773 l 570 773 z "},"U":{"ha":1133,"x_min":65,"x_max":1069,"o":"m 1025 854 l 1025 336 q 971 115 1025 189 q 568 -16 873 -16 q 229 55 347 -16 q 134 168 161 96 q 109 336 109 238 l 109 854 q 99 886 109 876 q 65 904 90 897 l 65 926 l 355 926 l 355 904 q 320 887 330 898 q 311 854 311 876 l 311 393 q 319 274 311 313 q 353 210 328 236 q 575 141 418 141 q 798 210 733 141 q 831 274 822 236 q 840 393 840 313 l 840 854 q 830 886 840 876 q 796 904 821 897 l 796 926 l 1069 926 l 1069 904 q 1035 886 1044 897 q 1025 854 1025 876 z "},"V":{"ha":1069,"x_min":-5,"x_max":1074,"o":"m 541 269 l 786 812 q 802 866 802 847 q 757 904 802 895 l 757 926 l 1074 926 l 1074 904 q 1032 887 1044 900 q 992 812 1021 874 l 671 120 q 651 62 651 76 q 694 22 651 28 l 694 0 l 375 0 l 375 22 q 418 63 418 28 q 397 120 418 76 l 77 812 q 37 887 48 874 q -5 904 25 900 l -5 926 l 324 926 l 324 904 q 279 866 279 895 q 295 812 279 847 l 541 269 z "},"W":{"ha":1567,"x_min":-14,"x_max":1581,"o":"m 785 652 l 573 117 q 555 66 555 77 q 605 22 555 35 l 605 0 l 307 0 l 307 22 q 353 68 353 31 q 334 128 353 78 l 68 811 q 33 880 49 862 q -14 904 17 898 l -14 926 l 308 926 l 308 904 q 265 864 265 895 q 276 819 265 848 l 459 330 l 657 822 q 670 864 670 854 q 625 904 670 895 l 625 926 l 961 926 l 961 904 q 915 860 915 892 q 926 819 915 849 l 1115 328 l 1297 811 q 1312 865 1312 847 q 1263 904 1312 895 l 1263 926 l 1581 926 l 1581 904 q 1534 880 1547 895 q 1500 811 1521 865 l 1235 128 q 1216 63 1216 79 q 1264 22 1216 30 l 1264 0 l 962 0 l 962 22 q 1010 67 1010 29 q 989 128 1010 80 l 785 652 z "},"X":{"ha":1045,"x_min":5,"x_max":1041,"o":"m 640 482 l 920 119 q 986 43 966 60 q 1041 22 1006 27 l 1041 0 l 674 0 l 674 22 q 715 57 715 30 q 690 103 715 71 l 512 332 l 342 111 q 315 60 315 75 q 360 22 315 26 l 360 0 l 5 0 l 5 22 q 53 39 36 25 q 123 119 71 54 l 402 472 l 145 808 q 78 887 95 874 q 25 904 62 901 l 24 926 l 396 926 l 396 904 q 355 863 355 893 q 385 808 355 846 l 530 622 l 677 808 q 709 867 709 850 q 663 904 709 897 l 663 926 l 1024 926 l 1024 904 q 978 889 991 901 q 906 808 964 878 l 640 482 z "},"Y":{"ha":990,"x_min":-18,"x_max":1008,"o":"m 596 387 l 596 71 q 606 39 596 50 q 640 22 616 28 l 640 0 l 349 0 l 349 22 q 384 39 374 28 q 394 71 394 50 l 394 387 l 95 808 q 34 881 56 863 q -18 904 12 900 l -18 926 l 347 926 l 347 904 q 302 862 302 897 q 330 808 302 850 l 496 560 l 668 808 q 696 863 696 848 q 684 889 696 878 q 650 904 671 901 l 650 926 l 1008 926 l 1008 904 q 956 881 978 900 q 895 808 934 863 l 596 387 z "},"Z":{"ha":991,"x_min":56,"x_max":936,"o":"m 384 153 l 865 153 q 897 162 886 153 q 914 196 907 172 l 936 196 l 936 -43 l 914 -43 q 897 -9 907 -19 q 865 0 886 0 l 56 0 l 56 47 l 594 773 l 131 773 q 99 764 110 773 q 81 730 88 755 l 60 730 l 60 970 l 81 970 q 99 935 89 945 q 131 926 110 926 l 928 926 l 928 887 l 384 153 z "},"[":{"ha":463,"x_min":91,"x_max":452,"o":"m 91 1000 l 382 1000 q 415 1010 404 1000 q 433 1044 426 1019 l 452 1044 l 452 862 l 433 862 q 415 896 427 886 q 382 906 404 906 l 283 906 l 283 20 l 374 20 q 414 29 402 20 q 433 64 426 38 l 452 64 l 452 -117 l 433 -117 q 415 -84 427 -94 q 382 -74 404 -74 l 91 -75 l 91 -58 q 124 -41 115 -52 q 134 -11 134 -31 l 134 936 q 124 966 134 956 q 91 983 115 977 l 91 1000 z "},"\\":{"ha":1055,"x_min":46,"x_max":1008,"o":"m 352 808 l 886 119 q 954 43 934 59 q 1008 22 973 27 l 1008 0 l 690 0 l 690 22 q 731 57 731 30 q 707 103 731 71 l 161 808 q 97 886 113 873 q 46 904 81 899 l 46 926 l 363 926 l 363 904 q 322 863 322 893 q 352 808 322 846 z "},"]":{"ha":463,"x_min":11,"x_max":372,"o":"m 372 1000 l 372 983 q 338 966 348 977 q 328 936 328 956 l 328 -11 q 338 -41 328 -31 q 372 -58 348 -51 l 372 -75 l 80 -74 q 47 -84 59 -74 q 29 -117 36 -94 l 11 -117 l 11 64 l 29 64 q 48 29 37 38 q 89 20 60 20 l 180 20 l 180 906 l 80 906 q 47 896 58 906 q 29 862 36 886 l 11 862 l 11 1044 l 29 1044 q 47 1010 37 1019 q 80 1000 58 1000 l 372 1000 z "},"^":{"ha":694,"x_min":24,"x_max":671,"o":"m 199 490 l 24 490 l 238 931 l 457 931 l 671 490 l 496 490 l 347 798 l 199 490 z "},"_":{"ha":694,"x_min":0,"x_max":694,"o":"m 0 -81 l 694 -81 l 694 -199 l 0 -199 l 0 -81 z "},"`":{"ha":694,"x_min":167,"x_max":437,"o":"m 167 1040 l 373 1040 l 373 1021 q 354 1008 354 1019 q 357 998 354 1004 l 401 888 q 414 868 408 873 q 437 863 421 863 l 437 845 l 290 845 l 290 863 q 294 863 292 863 q 307 874 307 863 q 303 885 307 880 l 207 1003 q 167 1021 193 1021 l 167 1040 z "},"a":{"ha":964,"x_min":3,"x_max":967,"o":"m 642 190 l 293 190 l 254 107 q 239 60 239 77 q 283 19 239 28 l 283 0 l 3 0 l 3 19 q 42 35 29 23 q 71 80 54 46 l 349 642 q 364 697 364 673 q 326 741 364 725 l 326 760 l 621 760 l 621 741 q 584 694 584 726 q 601 640 584 672 l 888 95 q 926 37 912 50 q 967 18 939 24 l 967 0 l 657 0 l 657 18 q 701 60 701 26 q 684 112 701 81 l 642 190 m 587 296 l 463 540 l 345 296 l 587 296 z "},"b":{"ha":941,"x_min":66,"x_max":897,"o":"m 764 408 q 847 357 821 382 q 897 225 897 308 q 812 54 897 114 q 607 0 738 0 l 66 0 l 66 19 q 100 37 90 25 q 110 69 110 48 l 110 690 q 100 722 110 711 q 66 741 91 733 l 66 760 l 598 760 q 803 709 738 760 q 872 564 872 656 q 848 475 872 510 q 764 408 824 441 m 292 475 l 568 475 q 660 491 633 475 q 687 549 687 508 q 660 605 687 589 q 568 622 633 622 l 292 622 l 292 475 m 292 138 l 574 138 q 711 237 711 138 q 574 337 711 337 l 292 337 l 292 138 z "},"c":{"ha":968,"x_min":50,"x_max":924,"o":"m 809 272 l 924 105 l 908 94 q 882 105 892 105 q 829 80 871 105 q 665 5 736 26 q 500 -16 593 -16 q 197 73 315 -16 q 92 200 131 123 q 50 380 50 283 q 127 616 50 513 q 499 776 248 776 q 664 755 592 776 q 829 680 736 734 q 882 654 871 654 q 908 666 892 654 l 924 654 l 809 488 l 794 498 q 795 509 795 507 q 796 517 796 515 q 705 593 796 551 q 530 633 618 633 q 326 568 406 633 q 235 380 235 494 q 326 191 235 264 q 530 127 407 127 q 722 175 626 127 q 796 241 796 213 q 794 260 796 243 l 809 272 z "},"d":{"ha":977,"x_min":66,"x_max":928,"o":"m 110 69 l 110 690 q 100 722 110 711 q 66 741 91 733 l 66 760 l 512 760 q 731 725 651 760 q 893 564 844 676 q 928 380 928 485 q 812 85 928 185 q 689 20 760 40 q 512 0 618 0 l 66 0 l 66 19 q 100 37 90 25 q 110 69 110 48 m 292 138 l 486 138 q 680 199 619 138 q 743 380 743 262 q 680 561 743 497 q 602 607 648 593 q 486 622 556 622 l 292 622 l 292 138 z "},"e":{"ha":891,"x_min":66,"x_max":843,"o":"m 292 323 l 292 138 l 774 138 q 806 147 795 138 q 824 182 817 157 l 843 182 l 843 -43 l 824 -43 q 806 -10 818 -20 q 774 0 795 0 l 66 0 l 66 19 q 100 37 90 25 q 110 69 110 48 l 110 690 q 100 722 110 711 q 66 741 91 733 l 66 760 l 753 760 q 786 769 774 760 q 804 803 797 779 l 822 803 l 822 578 l 804 578 q 786 612 797 603 q 753 622 774 622 l 292 622 l 292 455 l 578 455 q 610 465 599 455 q 629 498 621 474 l 647 498 l 647 279 l 629 279 q 611 313 622 303 q 578 323 600 323 l 292 323 z "},"f":{"ha":846,"x_min":66,"x_max":817,"o":"m 292 323 l 292 69 q 301 37 292 48 q 335 18 311 26 l 335 0 l 66 0 l 66 19 q 100 37 90 25 q 110 69 110 48 l 110 690 q 100 722 110 711 q 66 741 91 733 l 66 760 l 747 760 q 780 769 769 760 q 798 803 791 779 l 817 803 l 817 578 l 798 578 q 780 612 791 602 q 747 622 769 622 l 292 622 l 292 455 l 578 455 q 610 465 600 455 q 629 498 621 474 l 647 498 l 647 279 l 629 279 q 611 313 622 303 q 578 323 600 323 l 292 323 z "},"g":{"ha":1000,"x_min":50,"x_max":940,"o":"m 751 293 l 578 293 q 546 283 557 293 q 528 250 534 274 l 509 250 l 509 450 l 528 450 q 546 417 534 427 q 578 408 557 408 l 940 408 l 940 388 q 906 368 916 381 q 897 332 897 355 l 897 172 q 906 139 897 151 q 940 121 916 127 l 940 105 q 502 -16 720 -16 q 197 73 313 -16 q 95 193 134 121 q 50 376 50 279 q 132 614 50 510 q 513 776 261 776 q 766 727 624 776 q 831 708 822 708 q 859 719 843 708 l 875 710 l 785 519 l 768 527 q 768 531 768 530 q 718 583 768 556 q 519 632 625 632 q 317 565 396 632 q 235 375 235 494 q 310 196 235 263 q 527 127 387 127 q 751 177 660 127 l 751 293 z "},"h":{"ha":1008,"x_min":66,"x_max":941,"o":"m 715 330 l 292 330 l 292 69 q 301 37 292 48 q 335 18 311 26 l 335 0 l 66 0 l 66 19 q 100 37 90 25 q 110 69 110 48 l 110 690 q 100 722 110 711 q 66 741 91 733 l 66 760 l 335 760 l 335 741 q 301 723 311 734 q 292 690 292 711 l 292 468 l 715 468 l 715 690 q 706 722 715 711 q 672 741 697 733 l 672 760 l 941 760 l 941 741 q 907 723 916 734 q 897 690 897 711 l 897 69 q 907 37 897 48 q 941 18 916 26 l 941 0 l 672 0 l 672 19 q 706 37 696 25 q 715 69 715 48 l 715 330 z "},"i":{"ha":402,"x_min":66,"x_max":335,"o":"m 292 690 l 292 69 q 301 37 292 48 q 335 18 311 26 l 335 0 l 66 0 l 66 19 q 100 37 90 25 q 110 69 110 48 l 110 690 q 100 722 110 711 q 66 741 91 733 l 66 760 l 335 760 l 335 741 q 301 723 311 734 q 292 690 292 711 z "},"j":{"ha":702,"x_min":3,"x_max":650,"o":"m 3 20 l 71 227 l 88 221 q 103 182 88 197 q 179 144 125 161 q 282 127 234 127 q 390 160 355 127 q 425 260 425 193 l 425 690 q 415 722 425 711 q 381 741 406 733 l 381 760 l 650 760 l 650 741 q 616 723 625 734 q 606 690 606 711 l 606 257 q 564 78 606 132 q 462 8 530 33 q 308 -16 394 -16 q 73 28 213 -16 q 52 33 60 33 q 22 15 37 33 l 3 20 z "},"k":{"ha":951,"x_min":66,"x_max":940,"o":"m 399 347 l 292 258 l 292 69 q 301 37 292 48 q 335 18 311 26 l 335 0 l 66 0 l 66 19 q 100 37 90 25 q 110 69 110 48 l 110 690 q 100 722 110 711 q 66 741 91 733 l 66 760 l 335 760 l 335 741 q 301 723 311 734 q 292 690 292 711 l 292 441 l 577 669 q 609 713 609 694 q 570 741 609 734 l 570 760 l 911 760 l 911 741 q 868 726 886 737 q 783 654 851 714 l 526 450 l 808 126 q 886 44 863 63 q 940 18 909 25 l 940 0 l 608 0 l 608 18 q 645 45 645 27 q 641 59 645 52 q 609 96 636 65 l 399 347 z "},"l":{"ha":798,"x_min":66,"x_max":786,"o":"m 292 138 l 717 138 q 749 147 739 138 q 768 182 760 157 l 786 182 l 786 -43 l 768 -43 q 750 -9 761 -19 q 717 0 739 0 l 66 0 l 66 19 q 100 37 90 25 q 110 69 110 48 l 110 690 q 100 722 110 711 q 66 741 91 733 l 66 760 l 335 760 l 335 741 q 301 723 311 734 q 292 690 292 711 l 292 138 z "},"m":{"ha":1137,"x_min":66,"x_max":1070,"o":"m 552 24 l 275 499 l 275 69 q 285 37 275 48 q 319 18 294 26 l 319 0 l 66 0 l 66 19 q 100 37 90 25 q 110 69 110 48 l 110 690 q 100 723 110 711 q 66 741 91 734 l 66 760 l 387 760 l 387 741 q 355 702 355 730 q 378 634 355 674 l 568 315 l 758 629 q 791 705 791 683 q 758 741 791 733 l 758 760 l 1070 760 l 1070 741 q 1036 723 1046 734 q 1027 690 1027 711 l 1027 69 q 1036 37 1027 48 q 1070 18 1046 25 l 1070 0 l 802 0 l 802 19 q 835 37 825 25 q 845 69 845 48 l 845 499 l 552 24 z "},"n":{"ha":1033,"x_min":66,"x_max":966,"o":"m 275 500 l 275 69 q 285 37 275 48 q 319 18 295 25 l 319 0 l 66 0 l 66 19 q 100 37 90 25 q 110 69 110 48 l 110 690 q 100 722 110 711 q 66 741 91 733 l 66 760 l 358 760 l 358 741 q 328 714 328 733 q 350 676 328 698 l 757 272 l 757 690 q 747 723 757 711 q 713 741 738 734 l 713 760 l 966 760 l 966 741 q 932 723 941 734 q 922 690 922 711 l 922 69 q 932 37 922 48 q 966 18 941 26 l 966 0 l 694 0 l 694 18 q 724 43 724 24 q 715 63 724 53 q 678 103 707 73 l 275 500 z "},"o":{"ha":990,"x_min":50,"x_max":940,"o":"m 494 776 q 795 684 675 776 q 940 374 940 572 q 795 76 940 187 q 495 -16 676 -16 q 195 76 314 -16 q 50 380 50 187 q 195 684 50 574 q 494 776 315 774 m 494 632 q 303 557 377 632 q 235 380 235 486 q 303 203 235 274 q 495 127 377 127 q 686 203 612 127 q 755 376 755 273 q 686 557 755 488 q 494 632 612 631 z "},"p":{"ha":905,"x_min":66,"x_max":876,"o":"m 292 312 l 292 69 q 301 37 292 48 q 335 18 311 26 l 335 0 l 66 0 l 66 19 q 100 37 90 25 q 110 69 110 48 l 110 690 q 100 722 110 711 q 66 741 91 733 l 66 760 l 562 760 q 783 715 709 760 q 851 642 827 690 q 876 536 876 595 q 798 367 876 422 q 562 312 721 312 l 292 312 m 292 450 l 551 450 q 650 463 622 450 q 690 536 690 483 q 650 608 690 589 q 551 622 623 622 l 292 622 l 292 450 z "},"q":{"ha":1004,"x_min":50,"x_max":975,"o":"m 824 100 l 892 27 q 938 -1 919 -1 q 962 12 948 0 l 975 -2 l 810 -153 l 798 -139 q 810 -113 810 -125 q 779 -66 810 -102 l 703 22 q 494 -16 612 -16 q 195 76 314 -16 q 50 380 50 188 q 195 684 50 572 q 495 776 315 776 q 795 684 676 776 q 941 380 941 572 q 824 100 941 209 m 703 223 q 755 381 755 289 q 687 557 755 486 q 495 632 614 632 q 303 557 377 632 q 235 380 235 486 q 303 203 235 274 q 494 127 377 127 q 598 146 547 127 q 450 257 523 239 l 450 269 q 538 300 494 300 q 703 223 612 300 z "},"r":{"ha":954,"x_min":66,"x_max":931,"o":"m 292 312 l 292 69 q 301 37 292 48 q 335 18 311 26 l 335 0 l 66 0 l 66 19 q 100 37 90 25 q 110 69 110 48 l 110 690 q 100 722 110 711 q 66 741 91 733 l 66 760 l 564 760 q 712 750 661 760 q 803 714 763 740 q 885 539 885 661 q 834 395 885 447 q 671 320 784 343 l 815 119 q 878 44 854 64 q 931 18 901 24 l 931 0 l 612 0 l 612 18 q 648 49 648 28 q 626 94 648 64 l 474 312 l 292 312 m 292 450 l 566 450 q 658 463 628 450 q 700 536 700 481 q 670 603 700 584 q 566 622 641 622 l 292 622 l 292 450 z "},"s":{"ha":855,"x_min":45,"x_max":811,"o":"m 797 691 l 705 514 l 689 523 q 675 558 689 545 q 561 615 636 593 q 408 637 486 637 q 292 619 342 637 q 218 543 218 593 q 254 495 218 509 q 390 473 289 481 l 497 465 q 711 411 637 454 q 778 346 751 387 q 811 231 811 295 q 707 48 811 115 q 437 -16 607 -16 q 105 56 265 -16 q 87 61 94 61 q 62 45 73 61 l 45 52 l 123 237 l 140 231 q 140 225 140 227 q 153 195 140 208 q 271 143 187 165 q 435 121 354 121 q 564 140 507 121 q 635 215 635 163 q 586 273 635 256 q 469 291 553 283 l 362 300 q 231 317 276 307 q 151 349 185 328 q 83 423 108 376 q 59 526 59 470 q 166 716 59 650 q 408 776 264 776 q 553 759 486 776 q 714 698 621 741 q 753 685 742 685 q 781 700 764 685 l 797 691 z "},"t":{"ha":790,"x_min":11,"x_max":779,"o":"m 486 622 l 486 69 q 495 37 486 48 q 529 18 505 26 l 529 0 l 260 0 l 260 19 q 294 37 284 25 q 304 69 304 48 l 304 622 l 80 622 q 47 612 58 622 q 29 578 36 602 l 11 578 l 11 803 l 30 803 q 47 769 36 779 q 80 760 58 760 l 709 760 q 742 769 731 760 q 760 803 753 779 l 779 803 l 779 578 l 760 578 q 742 612 753 602 q 709 622 731 622 l 486 622 z "},"u":{"ha":959,"x_min":52,"x_max":907,"o":"m 863 690 l 863 288 q 809 86 863 151 q 479 -16 722 -16 q 218 33 317 -16 q 119 136 146 69 q 95 288 95 197 l 95 690 q 85 722 95 711 q 52 741 76 733 l 52 760 l 321 760 l 321 741 q 286 723 296 734 q 277 690 277 711 l 277 325 q 288 227 277 261 q 327 172 299 193 q 488 127 382 127 q 648 172 593 127 q 686 227 675 193 q 697 325 697 261 l 697 690 q 688 722 697 711 q 654 741 679 733 l 654 760 l 907 760 l 907 741 q 873 723 882 734 q 863 690 863 711 z "},"v":{"ha":903,"x_min":-3,"x_max":907,"o":"m 457 240 l 641 642 q 657 694 657 677 q 613 741 657 728 l 613 760 l 907 760 l 907 741 q 867 719 880 732 q 836 666 855 706 l 570 106 q 556 61 556 77 q 601 18 556 27 l 601 0 l 303 0 l 303 18 q 347 61 347 27 q 333 106 347 77 l 67 666 q 36 719 48 707 q -3 741 24 732 l -3 760 l 301 760 l 301 741 q 258 694 258 727 q 275 642 258 679 l 457 240 z "},"w":{"ha":1333,"x_min":-11,"x_max":1343,"o":"m 665 528 l 498 115 q 486 64 486 84 q 531 18 486 26 l 531 0 l 248 0 l 248 18 q 289 64 289 28 q 277 115 289 83 l 76 633 q 37 712 53 692 q -11 741 21 732 l -11 760 l 278 760 l 278 741 q 236 698 236 727 q 250 649 236 684 l 392 290 l 534 646 q 547 695 547 678 q 501 741 547 729 l 501 760 l 839 760 l 839 741 q 795 693 795 726 q 806 649 795 678 l 945 290 l 1083 652 q 1092 694 1092 676 q 1082 723 1092 713 q 1048 741 1073 733 l 1048 760 l 1343 760 l 1343 741 q 1295 710 1310 728 q 1257 633 1280 691 l 1053 115 q 1042 66 1042 87 q 1088 18 1042 26 l 1088 0 l 794 0 l 794 18 q 838 68 838 31 q 823 115 838 77 l 665 528 z "},"x":{"ha":882,"x_min":3,"x_max":878,"o":"m 542 393 l 766 96 q 821 40 795 57 q 878 18 846 22 l 878 0 l 528 0 l 528 18 q 571 54 571 28 q 549 98 571 68 l 425 260 l 301 98 q 283 56 283 74 q 327 18 283 32 l 327 0 l 3 0 l 3 18 q 54 40 36 26 q 105 96 73 54 l 329 385 l 132 648 q 21 741 69 732 l 21 760 l 368 760 l 368 741 q 324 700 324 728 q 345 654 324 683 l 448 517 l 543 646 q 571 701 571 684 q 526 741 571 731 l 526 760 l 857 760 l 857 741 q 803 719 821 733 q 742 648 786 705 l 542 393 z "},"y":{"ha":831,"x_min":-15,"x_max":846,"o":"m 507 333 l 507 69 q 516 37 507 48 q 550 18 526 26 l 550 0 l 281 0 l 281 18 q 315 36 306 25 q 325 69 325 47 l 325 333 l 100 643 q 39 714 62 695 q -15 741 16 734 l -15 760 l 327 760 l 327 741 q 283 699 283 729 q 315 640 283 684 l 425 486 l 533 640 q 565 700 565 685 q 522 741 565 728 l 521 760 l 846 760 l 846 741 q 792 714 815 734 q 732 643 770 695 l 507 333 z "},"z":{"ha":846,"x_min":52,"x_max":801,"o":"m 347 138 l 732 138 q 764 148 753 138 q 783 182 775 157 l 801 182 l 801 -43 l 782 -43 q 765 -10 776 -20 q 732 0 753 0 l 52 0 l 52 41 l 494 622 l 126 622 q 94 612 104 622 q 75 578 83 603 l 57 578 l 57 803 l 75 803 q 93 769 82 779 q 126 760 104 760 l 794 760 l 794 726 l 347 138 z "},"{":{"ha":463,"x_min":-39,"x_max":454,"o":"m 454 -117 l 435 -117 q 417 -83 429 -92 q 377 -74 405 -74 l 220 -74 q 141 -45 178 -74 q 97 31 96 -12 l 97 283 q 89 380 96 359 q 55 401 81 401 l 13 401 q -10 391 -2 401 q -23 357 -18 382 l -39 357 l -39 569 l -23 569 q -10 535 -18 544 q 13 526 -3 526 l 55 526 q 89 546 81 526 q 97 642 96 566 l 97 896 q 135 968 97 935 q 220 1000 174 1000 l 377 1000 q 417 1009 406 1000 q 435 1044 429 1018 l 454 1044 l 454 854 l 435 854 q 417 890 429 881 q 377 899 406 899 l 321 899 q 248 801 247 892 l 248 560 q 236 509 248 530 q 192 463 224 489 q 236 417 224 437 q 248 366 248 397 l 248 125 q 321 28 247 35 l 377 28 q 417 37 406 28 q 435 72 429 45 l 454 72 l 454 -117 z "},"|":{"ha":694,"x_min":248,"x_max":446,"o":"m 248 926 l 446 926 l 446 -231 l 248 -231 l 248 926 z "},"}":{"ha":463,"x_min":9,"x_max":503,"o":"m 9 -117 l 9 72 l 28 72 q 46 37 35 45 q 86 28 58 28 l 142 28 q 216 125 217 35 l 216 366 q 228 417 216 397 q 272 463 239 437 q 228 509 239 489 q 216 560 216 530 l 216 801 q 142 899 217 891 l 86 899 q 46 890 58 899 q 28 854 35 881 l 9 854 l 9 1044 l 28 1044 q 46 1009 35 1018 q 86 1000 58 1000 l 244 1000 q 323 972 286 1000 q 367 896 367 939 l 367 642 q 375 546 368 566 q 408 526 382 526 l 450 526 q 473 535 466 526 q 486 569 481 544 l 503 569 l 503 357 l 486 357 q 473 392 481 382 q 450 401 466 401 l 408 401 q 375 380 382 401 q 367 283 368 359 l 367 31 q 329 -41 367 -8 q 244 -74 290 -74 l 86 -74 q 46 -83 58 -74 q 28 -117 35 -92 l 9 -117 z "},"~":{"ha":926,"x_min":129,"x_max":800,"o":"m 225 328 l 129 408 q 188 515 156 473 q 332 594 248 594 q 485 548 381 594 q 602 510 571 510 q 703 597 654 510 l 800 517 q 736 406 767 443 q 595 331 677 331 q 542 340 568 331 q 406 395 516 349 q 326 416 356 416 q 275 397 297 416 q 225 328 252 377 z "},"Ä":{"ha":1130,"x_min":5,"x_max":1135,"o":"m 762 236 l 341 236 l 279 106 q 266 63 266 79 q 311 22 266 33 l 311 0 l 5 0 l 5 22 q 46 40 33 27 q 79 94 60 53 l 419 805 q 435 859 435 839 q 396 904 435 890 l 396 926 l 724 926 l 724 904 q 684 864 684 892 q 697 819 684 844 l 1050 106 q 1089 44 1072 60 q 1135 22 1106 27 l 1135 0 l 794 0 l 794 22 q 839 64 839 29 q 825 106 839 78 l 762 236 m 703 363 l 553 692 l 401 363 l 703 363 m 424 1181 q 488 1156 463 1181 q 514 1090 514 1129 q 488 1030 514 1056 q 425 1004 463 1004 q 363 1030 389 1004 q 337 1093 337 1055 q 362 1155 337 1129 q 424 1181 387 1180 m 694 1181 q 758 1156 732 1181 q 783 1095 783 1129 q 758 1030 783 1056 q 692 1004 732 1004 q 632 1030 657 1004 q 606 1093 606 1057 q 632 1155 606 1130 q 694 1181 657 1181 z "},"Å":{"ha":1130,"x_min":5,"x_max":1135,"o":"m 762 236 l 341 236 l 279 106 q 266 63 266 79 q 311 22 266 33 l 311 0 l 5 0 l 5 22 q 46 41 32 27 q 79 94 60 54 l 419 805 q 435 859 435 839 q 396 904 435 890 l 396 926 l 724 926 l 724 904 q 684 864 684 892 q 697 819 684 844 l 1050 106 q 1089 44 1072 60 q 1135 22 1106 27 l 1135 0 l 794 0 l 794 22 q 839 64 839 29 q 825 106 839 78 l 762 236 m 703 363 l 553 692 l 401 363 l 703 363 m 560 1230 q 671 1192 626 1230 q 716 1101 716 1154 q 671 1011 716 1047 q 561 975 624 975 q 451 1012 496 975 q 406 1103 406 1050 q 450 1193 406 1156 q 560 1230 494 1229 m 561 1159 q 512 1143 531 1159 q 492 1102 492 1127 q 512 1062 492 1078 q 561 1045 532 1045 q 609 1062 589 1045 q 629 1101 629 1078 q 610 1143 629 1126 q 561 1159 591 1159 z "},"Ç":{"ha":1165,"x_min":62,"x_max":1109,"o":"m 981 318 l 1109 125 l 1092 113 q 1061 130 1073 130 q 992 98 1048 130 q 796 7 876 31 q 606 -16 716 -16 q 247 87 387 -16 q 117 237 164 148 q 62 463 62 340 q 160 755 62 631 q 607 942 308 942 q 795 919 717 942 q 992 828 874 896 q 1061 796 1048 796 q 1092 814 1073 796 l 1109 802 l 981 608 l 962 621 q 964 639 964 631 q 947 676 964 659 q 886 718 930 693 q 632 785 766 785 q 379 706 473 785 q 268 463 268 613 q 379 220 268 313 q 632 141 473 141 q 886 209 766 141 q 947 251 930 233 q 964 288 964 268 q 962 305 964 295 l 981 318 m 483 -167 l 522 -92 q 534 -73 530 -75 q 549 -70 538 -70 q 693 -101 642 -70 q 744 -189 744 -132 q 701 -279 744 -243 q 568 -316 654 -316 q 418 -295 478 -316 l 435 -260 q 511 -271 476 -271 q 586 -254 558 -271 q 614 -208 614 -237 q 598 -170 614 -186 q 561 -155 583 -155 q 505 -181 528 -155 l 483 -167 z "},"É":{"ha":1055,"x_min":83,"x_max":995,"o":"m 329 406 l 329 153 l 924 153 q 956 162 945 153 q 973 196 966 172 l 995 196 l 995 -43 l 973 -43 q 956 -9 966 -19 q 924 0 945 0 l 83 0 l 83 22 q 117 39 108 28 q 127 71 127 50 l 127 854 q 117 886 127 876 q 83 904 108 897 l 83 926 l 908 926 q 939 936 928 926 q 957 970 950 945 l 979 970 l 979 730 l 957 730 q 939 764 950 754 q 908 773 928 773 l 329 773 l 329 553 l 705 553 q 736 563 725 553 q 753 597 747 572 l 775 597 l 775 363 l 753 363 q 736 396 747 387 q 705 406 725 406 l 329 406 m 726 1197 l 726 1179 q 686 1160 699 1178 l 589 1042 q 585 1031 585 1038 q 600 1021 585 1021 q 602 1021 600 1021 l 602 1002 l 455 1002 l 455 1021 q 478 1025 471 1021 q 491 1045 485 1030 l 536 1156 q 538 1166 538 1162 q 519 1179 538 1177 l 519 1197 l 726 1197 z "},"Ñ":{"ha":1211,"x_min":83,"x_max":1127,"o":"m 312 634 l 312 71 q 321 39 312 50 q 355 22 331 28 l 355 0 l 83 0 l 83 22 q 117 39 108 28 q 127 71 127 50 l 127 855 q 117 886 127 876 q 83 904 108 897 l 83 926 l 398 926 l 398 904 q 369 873 369 897 q 388 837 369 857 l 899 306 l 899 855 q 889 886 899 876 q 855 904 880 897 l 855 926 l 1127 926 l 1127 904 q 1093 886 1103 897 q 1084 855 1084 876 l 1084 71 q 1093 39 1084 50 q 1127 22 1103 28 l 1127 0 l 836 0 l 836 22 q 864 51 864 28 q 831 98 864 64 l 312 634 m 756 1186 l 854 1095 l 844 1082 q 819 1088 824 1088 q 801 1076 810 1088 q 705 1015 755 1015 q 647 1026 677 1015 l 547 1065 q 517 1070 532 1070 q 490 1059 503 1070 q 477 1036 477 1048 q 488 1015 477 1028 l 475 1006 l 374 1099 l 384 1111 q 407 1105 400 1105 q 433 1121 421 1105 q 536 1175 474 1175 q 580 1166 557 1175 l 681 1126 q 715 1120 699 1120 q 741 1131 729 1120 q 753 1154 753 1141 q 742 1176 753 1162 l 756 1186 z "},"Ö":{"ha":1188,"x_min":62,"x_max":1126,"o":"m 592 942 q 976 811 834 942 q 1126 457 1126 674 q 1054 209 1126 324 q 593 -16 913 -16 q 212 115 353 -16 q 96 282 136 184 q 62 463 62 368 q 133 718 62 602 q 592 942 269 938 m 593 785 q 372 707 460 785 q 268 463 268 614 q 372 220 268 313 q 594 141 460 141 q 815 220 728 141 q 895 334 867 267 q 920 459 920 395 q 815 707 920 616 q 593 785 726 784 m 458 1181 q 522 1156 496 1181 q 548 1090 548 1129 q 522 1030 548 1056 q 459 1004 496 1004 q 397 1030 423 1004 q 371 1093 371 1055 q 396 1155 371 1129 q 458 1181 421 1180 m 728 1181 q 791 1156 766 1181 q 817 1095 817 1129 q 791 1030 817 1056 q 726 1004 766 1004 q 666 1030 691 1004 q 640 1093 640 1057 q 666 1155 640 1129 q 728 1181 691 1181 z "},"Ü":{"ha":1133,"x_min":65,"x_max":1069,"o":"m 1025 854 l 1025 336 q 971 115 1025 189 q 568 -16 873 -16 q 229 55 347 -16 q 134 168 161 96 q 109 336 109 238 l 109 854 q 99 886 109 876 q 65 904 90 897 l 65 926 l 355 926 l 355 904 q 320 887 330 898 q 311 854 311 876 l 311 393 q 319 274 311 313 q 353 210 328 236 q 575 141 418 141 q 798 210 733 141 q 831 274 822 236 q 840 393 840 313 l 840 854 q 830 886 840 876 q 796 904 821 897 l 796 926 l 1069 926 l 1069 904 q 1035 886 1044 897 q 1025 854 1025 876 m 435 1181 q 500 1156 475 1181 q 526 1090 526 1129 q 500 1030 526 1056 q 437 1004 474 1004 q 374 1030 401 1004 q 349 1093 349 1055 q 374 1155 349 1129 q 435 1181 399 1180 m 706 1181 q 769 1156 743 1181 q 795 1095 795 1129 q 769 1030 795 1056 q 704 1004 743 1004 q 643 1030 669 1004 q 618 1093 618 1057 q 643 1155 618 1129 q 706 1181 669 1181 z "},"á":{"ha":964,"x_min":3,"x_max":967,"o":"m 642 190 l 293 190 l 254 107 q 239 60 239 77 q 283 19 239 28 l 283 0 l 3 0 l 3 19 q 42 35 29 23 q 71 80 54 46 l 349 642 q 364 697 364 673 q 326 741 364 725 l 326 760 l 621 760 l 621 741 q 584 694 584 726 q 601 640 584 672 l 888 95 q 926 37 912 50 q 967 18 939 24 l 967 0 l 657 0 l 657 18 q 701 60 701 26 q 684 112 701 81 l 642 190 m 587 296 l 463 540 l 345 296 l 587 296 m 665 1040 l 665 1021 q 625 1003 638 1021 l 528 885 q 524 874 524 880 q 538 863 524 863 q 541 863 539 863 l 541 845 l 394 845 l 394 863 q 417 868 410 863 q 430 888 424 873 l 475 998 q 477 1008 477 1004 q 458 1021 477 1019 l 458 1040 l 665 1040 z "},"à":{"ha":964,"x_min":3,"x_max":967,"o":"m 642 190 l 293 190 l 254 107 q 239 60 239 77 q 283 19 239 28 l 283 0 l 3 0 l 3 19 q 42 35 29 23 q 71 80 54 46 l 349 642 q 364 697 364 673 q 326 741 364 725 l 326 760 l 621 760 l 621 741 q 584 694 584 726 q 601 640 584 672 l 888 95 q 926 37 912 50 q 967 18 939 24 l 967 0 l 657 0 l 657 18 q 701 60 701 26 q 684 112 701 81 l 642 190 m 587 296 l 463 540 l 345 296 l 587 296 m 280 1040 l 486 1040 l 486 1021 q 467 1008 467 1019 q 470 998 467 1004 l 515 888 q 528 868 521 873 q 551 863 534 863 l 551 845 l 404 845 l 404 863 q 407 863 406 863 q 420 874 420 863 q 416 885 420 880 l 320 1003 q 280 1021 307 1021 l 280 1040 z "},"â":{"ha":964,"x_min":3,"x_max":967,"o":"m 642 190 l 293 190 l 254 107 q 239 60 239 77 q 283 19 239 28 l 283 0 l 3 0 l 3 19 q 42 35 29 23 q 71 80 54 46 l 349 642 q 364 697 364 673 q 326 741 364 725 l 326 760 l 621 760 l 621 741 q 584 694 584 726 q 601 640 584 672 l 888 95 q 926 37 912 50 q 967 18 939 24 l 967 0 l 657 0 l 657 18 q 701 60 701 26 q 684 112 701 81 l 642 190 m 587 296 l 463 540 l 345 296 l 587 296 m 413 845 l 243 845 l 243 863 q 264 867 260 864 q 290 892 269 870 l 381 993 q 389 1010 389 1001 q 366 1021 389 1021 l 366 1040 l 581 1040 l 581 1021 q 560 1009 560 1019 q 571 990 560 1002 l 673 877 q 703 863 684 864 l 703 845 l 509 845 l 509 863 q 530 873 530 865 q 519 889 530 876 l 462 959 l 399 887 q 393 875 393 881 q 413 863 393 865 l 413 845 z "},"ä":{"ha":964,"x_min":3,"x_max":967,"o":"m 642 190 l 293 190 l 254 107 q 239 60 239 77 q 283 19 239 28 l 283 0 l 3 0 l 3 19 q 42 35 29 23 q 71 80 54 46 l 349 642 q 364 697 364 673 q 326 741 364 725 l 326 760 l 621 760 l 621 741 q 584 694 584 726 q 601 640 584 672 l 888 95 q 926 37 912 50 q 967 18 939 24 l 967 0 l 657 0 l 657 18 q 701 60 701 26 q 684 112 701 81 l 642 190 m 587 296 l 463 540 l 345 296 l 587 296 m 340 1024 q 404 998 378 1024 q 430 934 430 972 q 404 873 430 899 q 341 847 378 847 q 279 873 305 847 q 253 935 253 898 q 278 997 253 972 q 340 1024 303 1023 m 610 1024 q 673 998 648 1024 q 699 937 699 972 q 673 873 699 899 q 609 847 648 847 q 548 873 573 847 q 522 936 522 899 q 548 998 522 972 q 610 1024 573 1023 z "},"ã":{"ha":964,"x_min":3,"x_max":967,"o":"m 642 190 l 293 190 l 254 107 q 239 60 239 77 q 283 19 239 28 l 283 0 l 3 0 l 3 19 q 42 35 29 23 q 71 80 54 46 l 349 642 q 364 697 364 673 q 326 741 364 725 l 326 760 l 621 760 l 621 741 q 584 694 584 726 q 601 640 584 672 l 888 95 q 926 37 912 50 q 967 18 939 24 l 967 0 l 657 0 l 657 18 q 701 60 701 26 q 684 112 701 81 l 642 190 m 587 296 l 463 540 l 345 296 l 587 296 m 623 1029 l 721 938 l 710 924 q 685 930 690 930 q 667 919 676 930 q 571 857 622 857 q 513 869 545 857 l 413 907 q 383 912 399 912 q 357 901 370 912 q 344 878 344 890 q 354 858 344 870 l 342 848 l 241 942 l 250 954 q 273 948 266 948 q 299 963 288 948 q 402 1017 341 1017 q 446 1008 425 1017 l 547 969 q 582 962 566 962 q 608 972 595 962 q 620 996 620 983 q 608 1018 620 1005 l 623 1029 z "},"å":{"ha":964,"x_min":3,"x_max":967,"o":"m 642 190 l 293 190 l 254 107 q 239 60 239 77 q 283 19 239 28 l 283 0 l 3 0 l 3 19 q 42 35 29 23 q 71 80 54 46 l 349 642 q 364 697 364 673 q 326 741 364 725 l 326 760 l 621 760 l 621 741 q 584 694 584 726 q 601 640 584 672 l 888 95 q 926 37 912 50 q 967 18 939 24 l 967 0 l 657 0 l 657 18 q 701 60 701 26 q 684 112 701 81 l 642 190 m 587 296 l 463 540 l 345 296 l 587 296 m 475 1072 q 586 1035 541 1072 q 631 944 631 997 q 586 854 631 890 q 476 817 539 817 q 366 854 412 817 q 321 945 321 892 q 365 1035 321 999 q 475 1072 410 1072 m 476 1002 q 427 986 446 1002 q 408 945 408 970 q 428 904 408 921 q 476 888 448 888 q 524 904 504 888 q 545 944 545 921 q 526 985 545 969 q 476 1002 507 1002 z "},"ç":{"ha":968,"x_min":50,"x_max":924,"o":"m 809 272 l 924 105 l 908 94 q 882 105 892 105 q 829 80 871 105 q 665 5 736 26 q 500 -16 593 -16 q 197 73 315 -16 q 92 200 131 123 q 50 380 50 283 q 127 616 50 513 q 499 776 248 776 q 664 755 592 776 q 829 680 736 734 q 882 654 871 654 q 908 666 892 654 l 924 654 l 809 488 l 794 498 q 795 509 795 507 q 796 517 796 515 q 705 593 796 551 q 530 633 618 633 q 326 568 406 633 q 235 380 235 494 q 326 191 235 264 q 530 127 407 127 q 722 175 626 127 q 796 241 796 213 q 794 260 796 243 l 809 272 m 387 -152 l 422 -85 q 434 -67 431 -70 q 448 -65 437 -65 q 581 -93 534 -65 q 628 -172 628 -121 q 588 -252 628 -220 q 464 -285 545 -285 q 327 -266 384 -285 l 342 -234 q 412 -245 380 -245 q 481 -230 456 -245 q 507 -188 507 -214 q 493 -154 507 -168 q 458 -140 479 -140 q 407 -164 428 -140 l 387 -152 z "},"é":{"ha":891,"x_min":66,"x_max":843,"o":"m 292 323 l 292 138 l 774 138 q 806 147 795 138 q 824 182 817 157 l 843 182 l 843 -43 l 824 -43 q 806 -10 818 -20 q 774 0 795 0 l 66 0 l 66 19 q 100 37 90 25 q 110 69 110 48 l 110 690 q 100 722 110 711 q 66 741 91 733 l 66 760 l 753 760 q 786 769 774 760 q 804 803 797 779 l 822 803 l 822 578 l 804 578 q 786 612 797 603 q 753 622 774 622 l 292 622 l 292 455 l 578 455 q 610 465 599 455 q 629 498 621 474 l 647 498 l 647 279 l 629 279 q 611 313 622 303 q 578 323 600 323 l 292 323 m 641 1040 l 641 1021 q 601 1003 614 1021 l 505 885 q 500 874 500 880 q 515 863 500 863 q 517 863 515 863 l 517 845 l 370 845 l 370 863 q 393 868 387 863 q 406 888 400 873 l 451 998 q 454 1008 454 1004 q 435 1021 454 1019 l 435 1040 l 641 1040 z "},"è":{"ha":891,"x_min":66,"x_max":843,"o":"m 292 323 l 292 138 l 774 138 q 806 147 795 138 q 824 182 817 157 l 843 182 l 843 -43 l 824 -43 q 806 -10 818 -20 q 774 0 795 0 l 66 0 l 66 19 q 100 37 90 25 q 110 69 110 48 l 110 690 q 100 722 110 711 q 66 741 91 733 l 66 760 l 753 760 q 786 769 774 760 q 804 803 797 779 l 822 803 l 822 578 l 804 578 q 786 612 797 603 q 753 622 774 622 l 292 622 l 292 455 l 578 455 q 610 465 599 455 q 629 498 621 474 l 647 498 l 647 279 l 629 279 q 611 313 622 303 q 578 323 600 323 l 292 323 m 273 1040 l 479 1040 l 479 1021 q 460 1008 460 1019 q 463 998 460 1004 l 508 888 q 521 868 514 873 q 544 863 528 863 l 544 845 l 397 845 l 397 863 q 400 863 399 863 q 414 874 414 863 q 410 885 414 880 l 313 1003 q 273 1021 300 1021 l 273 1040 z "},"ê":{"ha":891,"x_min":66,"x_max":843,"o":"m 292 323 l 292 138 l 774 138 q 806 147 795 138 q 824 182 817 157 l 843 182 l 843 -43 l 824 -43 q 806 -10 818 -20 q 774 0 795 0 l 66 0 l 66 19 q 100 37 90 25 q 110 69 110 48 l 110 690 q 100 722 110 711 q 66 741 91 733 l 66 760 l 753 760 q 786 769 774 760 q 804 803 797 779 l 822 803 l 822 578 l 804 578 q 786 612 797 603 q 753 622 774 622 l 292 622 l 292 455 l 578 455 q 610 465 599 455 q 629 498 621 474 l 647 498 l 647 279 l 629 279 q 611 313 622 303 q 578 323 600 323 l 292 323 m 399 845 l 229 845 l 229 863 q 250 867 245 864 q 276 892 255 870 l 367 993 q 374 1010 374 1001 q 352 1021 374 1021 l 352 1040 l 566 1040 l 566 1021 q 546 1009 546 1019 q 557 990 546 1002 l 659 877 q 689 863 669 864 l 689 845 l 494 845 l 494 863 q 515 873 515 865 q 505 889 515 876 l 448 959 l 385 887 q 379 875 379 881 q 399 863 379 865 l 399 845 z "},"ë":{"ha":891,"x_min":66,"x_max":843,"o":"m 292 323 l 292 138 l 774 138 q 806 147 795 138 q 824 182 817 157 l 843 182 l 843 -43 l 824 -43 q 806 -10 818 -20 q 774 0 795 0 l 66 0 l 66 19 q 100 37 90 25 q 110 69 110 48 l 110 690 q 100 722 110 711 q 66 741 91 733 l 66 760 l 753 760 q 786 769 774 760 q 804 803 797 779 l 822 803 l 822 578 l 804 578 q 786 612 797 603 q 753 622 774 622 l 292 622 l 292 455 l 578 455 q 610 465 599 455 q 629 498 621 474 l 647 498 l 647 279 l 629 279 q 611 313 622 303 q 578 323 600 323 l 292 323 m 323 1024 q 387 998 361 1024 q 413 934 413 972 q 387 873 413 899 q 324 847 361 847 q 262 873 288 847 q 236 935 236 898 q 261 997 236 972 q 323 1024 286 1023 m 593 1024 q 656 998 631 1024 q 682 937 682 972 q 656 873 682 899 q 592 847 631 847 q 531 873 556 847 q 505 936 505 899 q 531 998 505 972 q 593 1024 556 1023 z "},"í":{"ha":402,"x_min":66,"x_max":391,"o":"m 292 690 l 292 69 q 301 37 292 48 q 335 18 311 26 l 335 0 l 66 0 l 66 19 q 100 37 90 25 q 110 69 110 48 l 110 690 q 100 722 110 711 q 66 741 91 733 l 66 760 l 335 760 l 335 741 q 301 723 311 734 q 292 690 292 711 m 391 1040 l 391 1021 q 351 1003 365 1021 l 255 885 q 251 874 251 880 q 265 863 251 863 q 268 863 266 863 l 268 845 l 121 845 l 121 863 q 144 868 137 863 q 157 888 151 873 l 201 998 q 204 1008 204 1004 q 185 1021 204 1019 l 185 1040 l 391 1040 z "},"ì":{"ha":402,"x_min":10,"x_max":336,"o":"m 292 690 l 292 69 q 302 37 292 48 q 336 18 311 26 l 336 0 l 67 0 l 67 19 q 101 37 91 25 q 111 69 111 48 l 111 690 q 101 722 111 711 q 67 741 92 733 l 67 760 l 336 760 l 336 741 q 302 723 311 734 q 292 690 292 711 m 10 1040 l 216 1040 l 216 1021 q 197 1008 197 1019 q 200 998 197 1004 l 245 888 q 258 868 251 873 q 281 863 264 863 l 281 845 l 134 845 l 134 863 q 137 863 136 863 q 151 874 151 863 q 146 885 151 880 l 50 1003 q 10 1021 37 1021 l 10 1040 z "},"î":{"ha":401,"x_min":-15,"x_max":417,"o":"m 292 690 l 292 69 q 302 37 292 48 q 336 18 312 25 l 336 0 l 67 0 l 67 19 q 101 37 91 25 q 111 69 111 48 l 111 690 q 101 722 111 711 q 67 741 92 733 l 67 760 l 336 760 l 336 741 q 302 723 311 734 q 292 690 292 711 m 150 845 l -15 845 l -15 863 q 10 869 1 864 q 32 892 19 875 l 109 993 q 117 1010 117 1003 q 94 1021 117 1021 l 94 1040 l 308 1040 l 308 1021 q 288 1009 288 1019 q 298 990 288 1004 l 386 877 q 417 863 397 863 l 417 845 l 227 845 l 227 863 q 248 873 249 865 q 243 882 248 878 q 237 889 239 888 l 190 964 l 136 887 q 130 875 130 879 q 150 863 130 865 l 150 845 z "},"ï":{"ha":402,"x_min":1,"x_max":401,"o":"m 292 690 l 292 69 q 301 37 292 48 q 335 18 311 26 l 335 0 l 66 0 l 66 19 q 100 37 90 25 q 110 69 110 48 l 110 690 q 100 722 110 711 q 66 741 91 733 l 66 760 l 335 760 l 335 741 q 301 723 311 734 q 292 690 292 711 m 87 1024 q 152 998 126 1024 q 178 934 178 972 q 152 873 178 899 q 89 847 126 847 q 26 873 53 847 q 1 935 1 898 q 26 997 1 972 q 87 1024 51 1023 m 312 1024 q 375 998 349 1024 q 401 937 401 972 q 375 873 401 899 q 310 847 349 847 q 249 873 275 847 q 224 936 224 899 q 249 998 224 972 q 312 1024 275 1023 z "},"ñ":{"ha":1033,"x_min":66,"x_max":966,"o":"m 275 500 l 275 69 q 285 37 275 48 q 319 18 295 25 l 319 0 l 66 0 l 66 19 q 100 37 90 25 q 110 69 110 48 l 110 690 q 100 722 110 711 q 66 741 91 733 l 66 760 l 358 760 l 358 741 q 328 714 328 733 q 350 676 328 698 l 757 272 l 757 690 q 747 723 757 711 q 713 741 738 734 l 713 760 l 966 760 l 966 741 q 932 723 941 734 q 922 690 922 711 l 922 69 q 932 37 922 48 q 966 18 941 26 l 966 0 l 694 0 l 694 18 q 724 43 724 24 q 715 63 724 53 q 678 103 707 73 l 275 500 m 667 1029 l 766 938 l 755 924 q 730 930 735 930 q 712 919 721 930 q 616 857 667 857 q 558 869 589 857 l 458 907 q 428 912 444 912 q 401 901 414 912 q 389 878 389 890 q 399 858 389 870 l 387 848 l 286 942 l 295 954 q 318 948 311 948 q 344 963 332 948 q 447 1017 386 1017 q 491 1008 469 1017 l 592 969 q 627 962 611 962 q 652 972 640 962 q 665 996 665 983 q 653 1018 665 1005 l 667 1029 z "},"ó":{"ha":990,"x_min":50,"x_max":940,"o":"m 494 776 q 795 684 675 776 q 940 374 940 572 q 795 76 940 187 q 495 -16 676 -16 q 195 76 314 -16 q 50 380 50 187 q 195 684 50 574 q 494 776 315 774 m 494 632 q 303 557 377 632 q 235 380 235 486 q 303 203 235 274 q 495 127 377 127 q 686 203 612 127 q 755 376 755 273 q 686 557 755 488 q 494 632 612 631 m 690 1040 l 690 1021 q 650 1003 664 1021 l 554 885 q 550 874 550 880 q 564 863 550 863 q 567 863 565 863 l 567 845 l 420 845 l 420 863 q 443 868 436 863 q 456 888 450 873 l 500 998 q 503 1008 503 1004 q 484 1021 503 1019 l 484 1040 l 690 1040 z "},"ò":{"ha":990,"x_min":50,"x_max":940,"o":"m 494 776 q 795 684 675 776 q 940 374 940 572 q 795 76 940 187 q 495 -16 676 -16 q 195 76 314 -16 q 50 380 50 187 q 195 684 50 574 q 494 776 315 774 m 494 632 q 303 557 377 632 q 235 380 235 486 q 303 203 235 274 q 495 127 377 127 q 686 203 612 127 q 755 376 755 273 q 686 557 755 488 q 494 632 612 631 m 309 1040 l 515 1040 l 515 1021 q 496 1008 496 1019 q 498 998 496 1004 l 543 888 q 556 868 549 873 q 579 863 563 863 l 579 845 l 432 845 l 432 863 q 435 863 434 863 q 449 874 449 863 q 445 885 449 880 l 349 1003 q 309 1021 335 1021 l 309 1040 z "},"ô":{"ha":990,"x_min":50,"x_max":940,"o":"m 494 776 q 795 684 675 776 q 940 374 940 572 q 795 76 940 187 q 495 -16 676 -16 q 195 76 314 -16 q 50 380 50 187 q 195 684 50 574 q 494 776 315 774 m 494 632 q 303 557 377 632 q 235 380 235 486 q 303 203 235 274 q 495 127 377 127 q 686 203 612 127 q 755 376 755 273 q 686 557 755 488 q 494 632 612 631 m 439 845 l 269 845 l 269 863 q 290 867 286 864 q 316 892 295 870 l 407 993 q 414 1010 414 1001 q 392 1021 414 1021 l 392 1040 l 606 1040 l 606 1021 q 586 1009 586 1019 q 597 990 586 1002 l 699 877 q 729 863 709 864 l 729 845 l 534 845 l 534 863 q 555 873 555 865 q 545 889 555 876 l 488 959 l 425 887 q 419 875 419 881 q 439 863 419 865 l 439 845 z "},"ö":{"ha":990,"x_min":50,"x_max":940,"o":"m 494 776 q 795 684 675 776 q 940 374 940 572 q 795 76 940 187 q 495 -16 676 -16 q 195 76 314 -16 q 50 380 50 187 q 195 684 50 574 q 494 776 315 774 m 494 632 q 303 557 377 632 q 235 380 235 486 q 303 203 235 274 q 495 127 377 127 q 686 203 612 127 q 755 376 755 273 q 686 557 755 488 q 494 632 612 631 m 363 1024 q 428 998 402 1024 q 454 934 454 972 q 428 873 454 899 q 365 847 402 847 q 302 873 329 847 q 277 935 277 898 q 302 997 277 972 q 363 1024 327 1023 m 634 1024 q 697 998 671 1024 q 723 937 723 972 q 697 873 723 899 q 633 847 671 847 q 571 873 597 847 q 546 936 546 899 q 571 998 546 972 q 634 1024 597 1023 z "},"õ":{"ha":990,"x_min":50,"x_max":940,"o":"m 494 776 q 795 684 675 776 q 940 374 940 572 q 795 76 940 187 q 495 -16 676 -16 q 195 76 314 -16 q 50 380 50 187 q 195 684 50 574 q 494 776 315 774 m 494 632 q 303 557 377 632 q 235 380 235 486 q 303 203 235 274 q 495 127 377 127 q 686 203 612 127 q 755 376 755 273 q 686 557 755 488 q 494 632 612 631 m 646 1029 l 744 938 l 733 924 q 708 930 713 930 q 690 919 699 930 q 594 857 645 857 q 536 869 568 857 l 436 907 q 406 912 422 912 q 380 901 393 912 q 367 878 367 890 q 377 858 367 870 l 365 848 l 264 942 l 273 954 q 296 948 289 948 q 322 963 311 948 q 425 1017 364 1017 q 469 1008 448 1017 l 570 969 q 605 962 589 962 q 631 972 618 962 q 643 996 643 983 q 631 1018 643 1005 l 646 1029 z "},"ú":{"ha":959,"x_min":52,"x_max":907,"o":"m 863 690 l 863 288 q 809 86 863 151 q 479 -16 722 -16 q 218 33 317 -16 q 119 136 146 69 q 95 288 95 197 l 95 690 q 85 722 95 711 q 52 741 76 733 l 52 760 l 321 760 l 321 741 q 286 723 296 734 q 277 690 277 711 l 277 325 q 288 227 277 261 q 327 172 299 193 q 488 127 382 127 q 648 172 593 127 q 686 227 675 193 q 697 325 697 261 l 697 690 q 688 722 697 711 q 654 741 679 733 l 654 760 l 907 760 l 907 741 q 873 723 882 734 q 863 690 863 711 m 665 1040 l 665 1021 q 625 1003 639 1021 l 529 885 q 525 874 525 880 q 539 863 525 863 q 542 863 540 863 l 542 845 l 395 845 l 395 863 q 418 868 411 863 q 431 888 425 873 l 475 998 q 478 1008 478 1004 q 459 1021 478 1019 l 459 1040 l 665 1040 z "},"ù":{"ha":959,"x_min":52,"x_max":907,"o":"m 863 690 l 863 288 q 809 86 863 151 q 479 -16 722 -16 q 218 33 317 -16 q 119 136 146 69 q 95 288 95 197 l 95 690 q 85 722 95 711 q 52 741 76 733 l 52 760 l 321 760 l 321 741 q 286 723 296 734 q 277 690 277 711 l 277 325 q 288 227 277 261 q 327 172 299 193 q 488 127 382 127 q 648 172 593 127 q 686 227 675 193 q 697 325 697 261 l 697 690 q 688 722 697 711 q 654 741 679 733 l 654 760 l 907 760 l 907 741 q 873 723 882 734 q 863 690 863 711 m 298 1040 l 504 1040 l 504 1021 q 485 1008 485 1019 q 488 998 485 1004 l 532 888 q 545 868 538 873 q 568 863 552 863 l 568 845 l 421 845 l 421 863 q 425 863 423 863 q 438 874 438 863 q 434 885 438 880 l 338 1003 q 298 1021 324 1021 l 298 1040 z "},"û":{"ha":959,"x_min":52,"x_max":907,"o":"m 863 690 l 863 288 q 809 86 863 151 q 479 -16 722 -16 q 218 33 317 -16 q 119 136 146 69 q 95 288 95 197 l 95 690 q 85 722 95 711 q 52 741 76 733 l 52 760 l 321 760 l 321 741 q 286 723 296 734 q 277 690 277 711 l 277 325 q 288 227 277 261 q 327 172 299 193 q 488 127 382 127 q 648 172 593 127 q 686 227 675 193 q 697 325 697 261 l 697 690 q 688 722 697 711 q 654 741 679 733 l 654 760 l 907 760 l 907 741 q 873 723 882 734 q 863 690 863 711 m 423 845 l 254 845 l 254 863 q 275 867 270 864 q 300 892 279 870 l 391 993 q 399 1010 399 1001 q 376 1021 399 1021 l 376 1040 l 591 1040 l 591 1021 q 570 1009 570 1019 q 581 990 570 1002 l 683 877 q 713 863 694 864 l 713 845 l 519 845 l 519 863 q 540 873 540 865 q 529 889 540 876 l 472 959 l 410 887 q 404 875 404 881 q 423 863 404 865 l 423 845 z "},"ü":{"ha":959,"x_min":52,"x_max":907,"o":"m 863 690 l 863 288 q 809 86 863 151 q 479 -16 722 -16 q 218 33 317 -16 q 119 136 146 69 q 95 288 95 197 l 95 690 q 85 722 95 711 q 52 741 76 733 l 52 760 l 321 760 l 321 741 q 286 723 296 734 q 277 690 277 711 l 277 325 q 288 227 277 261 q 327 172 299 193 q 488 127 382 127 q 648 172 593 127 q 686 227 675 193 q 697 325 697 261 l 697 690 q 688 722 697 711 q 654 741 679 733 l 654 760 l 907 760 l 907 741 q 873 723 882 734 q 863 690 863 711 m 347 1024 q 412 998 386 1024 q 437 934 437 972 q 412 873 437 899 q 349 847 386 847 q 286 873 313 847 q 260 935 260 898 q 286 997 260 972 q 347 1024 311 1023 m 618 1024 q 681 998 655 1024 q 707 937 707 972 q 681 873 707 899 q 616 847 655 847 q 555 873 581 847 q 530 936 530 899 q 555 998 530 972 q 618 1024 581 1023 z "},"†":{"ha":749,"x_min":65,"x_max":684,"o":"m 434 728 l 613 728 q 645 738 634 728 q 663 772 656 747 l 684 772 l 684 557 l 663 557 q 645 591 656 582 q 613 601 634 601 l 434 601 l 462 -22 q 471 -54 463 -44 q 505 -71 480 -64 l 505 -93 l 244 -93 l 244 -71 q 278 -53 269 -63 q 288 -22 287 -43 l 315 601 l 136 601 q 104 591 115 601 q 87 557 94 582 l 65 557 l 65 772 l 87 772 q 107 736 95 744 q 155 728 119 728 l 315 728 l 288 947 q 277 981 285 972 q 244 997 269 990 l 244 1019 l 505 1019 l 505 997 q 472 981 481 990 q 462 947 464 971 l 434 728 z "},"°":{"ha":641,"x_min":102,"x_max":538,"o":"m 321 952 q 480 882 414 952 q 538 731 538 821 q 473 576 538 641 q 320 515 408 515 q 158 586 223 515 q 102 732 102 648 q 122 825 102 780 q 176 899 142 869 q 321 952 239 951 m 319 873 q 229 836 267 873 q 184 733 184 793 q 217 642 184 682 q 319 594 257 594 q 415 635 374 594 q 456 730 456 675 q 418 829 456 789 q 319 873 377 872 z "},"¢":{"ha":991,"x_min":80,"x_max":954,"o":"m 479 71 q 285 123 369 80 q 139 256 193 169 q 80 465 80 350 q 179 727 80 618 q 479 859 284 843 l 479 895 q 469 927 479 916 q 435 945 460 939 l 435 964 l 621 964 l 621 945 q 587 927 596 938 q 577 895 577 916 l 577 859 q 714 835 653 857 q 890 747 774 813 q 913 740 903 740 q 939 751 922 740 l 954 739 l 840 573 l 825 585 q 826 599 826 594 q 785 652 826 629 q 682 699 726 686 q 577 718 639 713 l 577 213 q 752 260 671 220 q 827 327 827 298 q 825 346 827 328 l 840 357 l 954 191 l 939 179 q 912 191 923 191 q 831 149 903 191 q 711 95 766 112 q 577 71 656 78 l 577 31 q 587 -2 577 9 q 621 -20 596 -13 l 621 -38 l 435 -38 l 435 -20 q 469 -1 460 -12 q 479 31 479 9 l 479 71 m 479 221 l 479 709 q 358 653 404 690 q 267 465 267 579 q 358 277 267 351 q 479 221 404 241 z "},"£":{"ha":991,"x_min":96,"x_max":973,"o":"m 210 546 q 199 665 199 627 q 270 842 199 774 q 397 916 319 889 q 564 942 474 942 q 780 897 688 942 q 883 829 820 877 q 940 803 918 803 q 960 810 948 803 l 973 793 l 775 650 l 762 667 q 774 690 774 675 q 731 744 774 714 q 582 785 671 785 q 447 749 494 785 q 399 648 399 713 q 406 546 399 624 l 560 546 q 592 555 581 546 q 610 589 603 565 l 631 589 l 631 370 l 610 370 q 592 404 603 394 q 560 414 581 414 l 420 414 q 425 340 425 368 q 410 243 425 278 q 350 163 395 208 q 476 184 421 184 q 596 166 524 184 q 678 151 655 151 q 737 170 710 151 q 764 211 764 188 q 749 239 764 227 l 764 254 l 960 104 l 947 89 q 922 97 932 97 q 846 58 905 97 q 759 12 798 25 q 673 -2 720 -2 q 624 1 646 -2 q 497 22 602 4 q 403 29 460 29 q 161 -26 268 29 l 96 121 q 201 209 172 162 q 230 340 230 256 q 227 414 230 368 l 172 414 q 140 404 151 414 q 122 370 129 394 l 100 370 l 100 589 l 122 589 q 140 555 129 565 q 172 546 151 546 l 210 546 z "},"§":{"ha":932,"x_min":65,"x_max":868,"o":"m 771 310 q 849 236 829 269 q 868 144 868 203 q 793 -28 868 41 q 496 -111 701 -111 q 309 -89 391 -111 q 133 -10 227 -66 q 109 -1 118 -1 q 79 -17 100 -1 l 65 -8 l 183 172 l 198 163 q 192 139 192 147 q 243 81 192 114 q 495 22 336 22 q 671 62 611 22 q 721 139 721 96 q 678 195 721 176 q 523 226 635 214 l 389 239 q 187 300 255 254 q 133 362 153 323 q 113 446 113 401 q 165 584 113 533 q 226 627 184 602 q 150 683 174 654 q 114 794 114 728 q 202 973 114 908 q 448 1038 291 1038 q 586 1025 520 1038 q 743 980 652 1012 q 780 972 765 972 q 806 989 788 972 l 822 983 l 729 794 l 713 802 q 718 824 718 817 q 666 866 718 844 q 571 896 616 888 q 456 904 526 904 q 311 879 361 904 q 254 809 254 852 q 287 763 254 779 q 401 739 319 747 l 531 724 q 765 666 684 708 q 868 489 868 612 q 843 382 868 429 q 771 310 818 335 m 597 363 q 686 408 663 389 q 720 479 720 438 q 686 538 720 519 q 559 568 652 557 l 381 588 q 254 468 254 539 q 298 411 254 429 q 401 391 318 403 l 597 363 z "},"•":{"ha":926,"x_min":272,"x_max":657,"o":"m 467 663 q 600 607 544 663 q 657 471 657 551 q 600 334 657 391 q 465 278 545 278 q 329 334 385 278 q 272 470 272 391 q 329 607 272 552 q 467 663 386 663 z "},"¶":{"ha":886,"x_min":28,"x_max":849,"o":"m 435 431 l 312 431 q 220 446 271 431 q 138 481 169 460 q 28 685 28 558 q 75 821 28 762 q 146 883 107 861 q 240 914 185 905 q 323 926 309 926 l 849 926 l 849 904 q 814 886 823 897 q 806 846 806 874 l 806 -31 q 814 -71 806 -60 q 849 -90 823 -83 l 849 -111 l 676 -111 l 676 842 l 564 842 l 564 -111 l 391 -111 l 391 -90 q 426 -71 418 -83 q 435 -31 435 -60 l 435 431 z "},"ß":{"ha":1710,"x_min":45,"x_max":1666,"o":"m 797 691 l 705 514 l 689 523 q 675 558 689 545 q 561 615 636 593 q 408 637 486 637 q 292 619 342 637 q 218 543 218 593 q 254 495 218 509 q 390 473 289 481 l 497 465 q 711 411 637 454 q 778 346 751 387 q 811 231 811 295 q 707 48 811 115 q 437 -16 607 -16 q 105 56 265 -16 q 87 61 94 61 q 62 45 73 61 l 45 52 l 123 237 l 140 231 q 140 225 140 227 q 153 195 140 208 q 271 143 187 165 q 435 121 354 121 q 564 140 507 121 q 635 215 635 163 q 586 273 635 256 q 469 291 553 283 l 362 300 q 231 317 276 307 q 151 349 185 328 q 83 423 108 376 q 59 526 59 470 q 166 716 59 650 q 408 776 264 776 q 553 759 486 776 q 714 698 621 741 q 753 685 742 685 q 781 700 764 685 l 797 691 m 1653 691 l 1560 514 l 1544 523 q 1545 530 1545 528 q 1518 568 1545 549 q 1404 619 1472 600 q 1263 637 1335 637 q 1147 619 1198 637 q 1074 543 1074 593 q 1109 495 1074 509 q 1246 473 1144 481 l 1352 465 q 1567 411 1493 454 q 1633 346 1607 387 q 1666 231 1666 295 q 1563 48 1666 115 q 1293 -16 1462 -16 q 961 56 1120 -16 q 942 61 949 61 q 917 45 928 61 l 900 52 l 978 237 l 996 231 q 995 225 995 227 q 1008 195 995 208 q 1126 143 1042 165 q 1291 121 1209 121 q 1419 140 1362 121 q 1490 215 1490 163 q 1441 273 1490 256 q 1324 291 1409 283 l 1217 300 q 1086 317 1131 307 q 1006 349 1040 328 q 939 423 963 376 q 914 526 914 470 q 1021 716 914 650 q 1263 776 1119 776 q 1408 759 1341 776 q 1569 698 1476 741 q 1608 685 1597 685 q 1636 700 1619 685 l 1653 691 z "},"®":{"ha":1233,"x_min":63,"x_max":1171,"o":"m 615 942 q 1010 814 860 942 q 1136 640 1094 743 q 1171 457 1171 555 q 1095 210 1171 325 q 865 26 1013 82 q 616 -16 755 -16 q 224 112 373 -16 q 98 286 140 184 q 63 463 63 370 q 138 717 63 601 q 368 900 219 842 q 615 942 473 940 m 615 862 q 273 741 399 862 q 158 463 158 631 q 273 184 158 296 q 616 64 399 64 q 960 184 835 64 q 1076 457 1076 295 q 960 741 1076 633 q 813 832 892 806 q 615 862 726 861 m 481 408 l 481 231 q 487 215 481 220 q 507 206 492 210 l 507 185 l 328 185 l 328 206 q 348 215 342 210 q 353 231 353 220 l 353 694 q 348 711 353 706 q 328 720 343 716 l 328 741 l 673 741 q 774 733 737 741 q 839 707 812 726 q 903 573 903 665 q 758 413 903 436 l 860 269 q 901 218 888 229 q 934 207 913 208 l 934 185 l 727 185 l 727 207 q 747 217 747 209 q 729 249 747 221 l 621 408 l 481 408 m 481 507 l 661 507 q 747 519 726 507 q 775 574 775 534 q 747 629 775 614 q 661 641 726 641 l 481 641 l 481 507 z "},"©":{"ha":1226,"x_min":63,"x_max":1171,"o":"m 615 942 q 1010 814 860 942 q 1136 640 1094 743 q 1171 457 1171 555 q 1095 210 1171 325 q 865 26 1013 82 q 616 -16 755 -16 q 224 112 373 -16 q 98 286 140 184 q 63 463 63 370 q 138 717 63 601 q 368 900 219 842 q 615 942 473 940 m 615 862 q 273 741 399 862 q 158 463 158 631 q 273 184 158 296 q 616 64 399 64 q 960 184 835 64 q 1076 457 1076 295 q 960 741 1076 633 q 813 832 892 806 q 615 862 726 861 m 841 384 l 922 262 l 905 250 q 887 262 893 262 q 849 244 881 262 q 733 190 782 205 q 619 176 684 176 q 404 237 488 176 q 293 463 293 319 q 404 689 293 607 q 619 751 488 751 q 729 738 681 751 q 836 690 777 724 l 849 683 q 887 665 881 665 q 905 676 892 665 l 922 664 l 841 543 l 824 554 q 825 568 825 563 q 782 609 825 585 q 635 648 712 648 q 488 603 543 648 q 424 463 424 549 q 481 329 424 379 q 635 278 539 278 q 782 317 712 278 q 825 359 825 342 q 824 372 825 363 l 841 384 z "},"™":{"ha":1413,"x_min":1,"x_max":1366,"o":"m 358 831 l 358 442 q 363 427 358 432 q 385 418 369 422 l 385 398 l 197 398 l 197 418 q 218 427 213 422 q 224 442 224 432 l 224 831 l 50 831 q 33 826 38 831 q 23 807 27 821 l 1 807 l 1 950 l 23 950 q 33 930 27 935 q 50 926 38 926 l 532 926 q 549 930 543 926 q 558 950 554 935 l 580 950 l 580 807 l 558 807 q 549 826 554 821 q 532 831 543 831 l 358 831 m 986 401 l 779 745 l 779 442 q 785 427 779 432 q 806 418 790 422 l 806 398 l 628 398 l 628 418 q 650 427 644 422 q 655 442 655 432 l 655 882 q 650 897 655 892 q 628 905 644 902 l 628 926 l 859 926 l 859 905 q 839 888 839 901 q 844 873 839 882 l 997 618 l 1151 868 q 1161 891 1161 884 q 1140 905 1161 904 l 1140 926 l 1366 926 l 1366 905 q 1344 897 1350 902 q 1339 882 1339 892 l 1339 442 q 1344 427 1339 432 q 1366 418 1350 422 l 1366 398 l 1178 398 l 1178 418 q 1199 427 1194 422 q 1204 442 1204 432 l 1204 745 l 986 401 z "},"´":{"ha":694,"x_min":257,"x_max":528,"o":"m 528 1040 l 528 1021 q 488 1003 501 1021 l 391 885 q 387 874 387 880 q 401 863 387 863 q 404 863 402 863 l 404 845 l 257 845 l 257 863 q 280 868 273 863 q 293 888 287 873 l 338 998 q 340 1008 340 1004 q 321 1021 340 1019 l 321 1040 l 528 1040 z "},"¨":{"ha":694,"x_min":124,"x_max":570,"o":"m 211 1024 q 275 998 250 1024 q 301 934 301 972 q 275 873 301 899 q 212 847 250 847 q 150 873 176 847 q 124 935 124 898 q 149 997 124 972 q 211 1024 174 1023 m 481 1024 q 545 998 519 1024 q 570 937 570 972 q 545 873 570 899 q 480 847 519 847 q 419 873 444 847 q 393 936 393 899 q 419 998 393 972 q 481 1024 444 1023 z "},"≠":{"ha":1065,"x_min":159,"x_max":906,"o":"m 564 687 l 626 821 q 631 843 631 831 q 606 880 631 859 l 614 898 l 814 806 l 805 787 q 783 790 792 790 q 747 764 758 790 l 710 687 l 841 687 q 870 696 860 687 q 886 730 880 706 l 906 730 l 906 511 l 886 511 q 870 545 880 535 q 841 554 860 554 l 648 554 l 564 372 l 841 372 q 870 381 860 372 q 886 415 880 391 l 906 415 l 906 195 l 886 195 q 870 230 880 220 q 841 239 860 239 l 501 239 l 439 105 q 434 83 434 95 q 459 45 434 66 l 450 28 l 251 121 l 260 139 q 282 136 273 136 q 318 161 307 136 l 355 239 l 224 239 q 195 230 205 239 q 178 195 185 220 l 159 195 l 159 415 l 179 415 q 195 382 184 391 q 224 372 205 372 l 416 372 l 501 554 l 224 554 q 195 545 204 554 q 178 511 185 535 l 159 511 l 159 730 l 179 730 q 195 696 184 706 q 224 687 205 687 l 564 687 z "},"Æ":{"ha":1615,"x_min":-18,"x_max":1555,"o":"m 687 236 l 355 236 l 279 106 q 262 60 262 76 q 302 22 262 33 l 302 0 l -18 0 l -18 22 q 26 41 11 28 q 64 94 41 54 l 473 805 q 496 863 496 843 q 455 904 496 891 l 455 926 l 1468 926 q 1499 936 1489 926 q 1517 970 1510 945 l 1539 970 l 1539 730 l 1517 730 q 1499 764 1510 754 q 1468 773 1489 773 l 889 773 l 889 553 l 1264 553 q 1295 563 1284 553 q 1313 597 1306 572 l 1335 597 l 1335 363 l 1313 363 q 1295 397 1306 387 q 1264 406 1284 406 l 889 406 l 889 153 l 1484 153 q 1516 162 1505 153 q 1533 196 1527 172 l 1555 196 l 1555 -43 l 1533 -43 q 1516 -9 1527 -19 q 1484 0 1505 0 l 644 0 l 644 22 q 677 39 668 28 q 687 71 687 50 l 687 236 m 687 363 l 687 773 l 658 773 l 429 363 l 687 363 z "},"Ø":{"ha":1188,"x_min":62,"x_max":1126,"o":"m 844 1019 l 1115 1019 l 1115 992 q 1062 970 1082 987 q 985 878 1042 953 l 951 833 q 1126 463 1126 688 q 1054 210 1126 324 q 594 -16 913 -16 q 464 -6 518 -16 q 343 28 410 3 l 320 -2 q 303 -38 303 -25 q 345 -66 303 -66 l 345 -93 l 73 -93 l 73 -66 q 134 -37 108 -59 q 209 51 159 -15 l 239 91 q 62 463 62 238 q 134 717 62 602 q 594 942 273 942 q 725 932 671 942 q 848 896 779 922 l 870 925 q 883 957 883 942 q 844 992 883 987 l 844 1019 m 450 170 q 593 141 519 141 q 815 220 728 141 q 920 463 920 313 q 838 684 920 586 l 450 170 m 741 755 q 595 785 669 785 q 372 707 460 785 q 268 464 268 613 q 352 240 268 336 l 741 755 z "},"∞":{"ha":926,"x_min":24,"x_max":901,"o":"m 466 387 q 406 320 433 346 q 240 254 334 254 q 81 320 142 254 q 24 473 24 380 q 85 629 24 569 q 239 690 146 690 q 460 558 360 690 q 686 690 559 690 q 851 618 789 690 q 901 472 901 559 q 842 316 901 376 q 686 254 781 254 q 571 285 623 254 q 466 387 518 317 m 527 472 q 668 370 595 370 q 739 399 711 370 q 768 472 768 428 q 739 545 768 515 q 667 574 710 574 q 559 515 610 574 q 540 490 553 507 q 527 472 527 473 m 398 471 q 256 574 330 574 q 185 545 213 574 q 158 471 158 516 q 186 399 158 427 q 258 370 214 370 q 366 428 317 370 q 386 453 372 436 q 398 471 399 471 z "},"±":{"ha":1065,"x_min":159,"x_max":906,"o":"m 466 397 l 224 397 q 195 387 205 397 q 178 353 185 378 l 159 353 l 159 573 l 179 573 q 195 539 184 549 q 224 530 205 530 l 466 530 l 466 771 q 456 800 466 790 q 422 816 447 810 l 422 836 l 642 836 l 642 817 q 608 800 618 810 q 599 771 599 790 l 599 530 l 841 530 q 870 539 860 530 q 886 573 880 549 l 906 573 l 906 353 l 886 353 q 870 387 880 378 q 841 397 860 397 l 599 397 l 599 201 q 608 172 599 182 q 642 155 618 161 l 642 136 l 422 136 l 422 156 q 456 172 447 161 q 466 201 466 182 l 466 397 m 159 -129 l 159 91 l 179 91 q 195 58 184 67 q 224 48 205 48 l 841 48 q 870 57 860 48 q 886 91 880 66 l 906 91 l 906 -129 l 886 -129 q 870 -94 880 -104 q 841 -85 860 -85 l 224 -85 q 195 -94 204 -85 q 178 -129 185 -104 l 159 -129 z "},"≤":{"ha":694,"x_min":46,"x_max":648,"o":"m 648 886 l 648 703 l 260 574 l 648 446 l 648 262 l 46 492 l 46 657 l 648 886 m 648 224 l 648 52 l 46 52 l 46 224 l 648 224 z "},"≥":{"ha":694,"x_min":46,"x_max":648,"o":"m 46 886 l 648 657 l 648 492 l 46 262 l 46 446 l 433 574 l 46 703 l 46 886 m 46 224 l 648 224 l 648 52 l 46 52 l 46 224 z "},"¥":{"ha":991,"x_min":56,"x_max":935,"o":"m 395 274 l 197 274 q 165 262 176 274 q 148 220 155 250 l 126 220 l 126 451 l 148 451 q 165 417 155 427 q 197 408 176 408 l 382 408 l 301 568 l 142 568 q 110 556 121 568 q 92 514 99 544 l 71 514 l 71 745 l 92 745 q 110 711 99 720 q 142 701 121 701 l 236 701 l 169 808 q 113 877 140 854 q 56 904 86 900 l 56 926 l 422 926 l 422 904 q 376 863 376 897 q 379 848 376 855 q 401 806 382 841 l 498 560 l 598 806 q 620 847 616 840 q 623 863 623 854 q 577 904 623 897 l 577 926 l 935 926 l 935 904 q 877 877 904 900 q 821 808 850 854 l 755 701 l 849 701 q 881 711 869 701 q 898 745 892 721 l 920 745 l 920 514 l 898 514 q 881 556 892 544 q 849 568 869 568 l 690 568 l 610 408 l 793 408 q 825 417 814 408 q 842 451 836 427 l 864 451 l 864 220 l 842 220 q 825 262 836 250 q 793 274 814 274 l 597 274 l 597 71 q 607 39 597 50 q 641 22 616 28 l 641 0 l 350 0 l 350 22 q 385 39 375 28 q 395 71 395 50 l 395 274 z "},"µ":{"ha":667,"x_min":-9,"x_max":700,"o":"m 700 75 l 700 47 l 523 -16 q 515 -17 518 -17 q 466 7 485 -17 q 435 81 454 24 q 376 22 396 38 q 260 -21 324 -21 q 169 5 202 -21 q 109 95 136 31 q 109 74 109 79 q 118 -8 109 33 q 151 -122 127 -50 q 167 -197 167 -169 q 149 -243 167 -223 q 81 -273 123 -273 q 15 -251 40 -273 q -9 -193 -9 -229 q 3 -102 -9 -160 q 46 337 44 97 l 46 635 l 229 635 l 229 236 q 250 98 229 134 q 276 74 258 83 q 312 64 294 64 q 366 81 340 64 q 423 139 391 98 l 423 635 l 604 635 l 604 183 q 615 90 604 113 q 662 67 627 67 q 700 75 678 67 z "},"∂":{"ha":694,"x_min":26,"x_max":668,"o":"m 91 777 l 113 922 q 338 870 242 907 q 549 721 463 823 q 668 357 668 579 q 584 90 668 188 q 339 -16 492 -16 q 106 87 193 -16 q 26 305 26 180 q 80 479 26 401 q 182 567 119 536 q 319 599 245 599 q 429 572 388 599 q 472 541 435 568 q 487 530 477 536 q 479 545 481 541 q 432 628 449 606 q 375 678 415 650 q 91 777 258 760 m 353 460 q 252 423 294 460 q 196 296 196 374 q 244 177 196 226 q 350 133 288 133 q 456 181 413 133 q 498 300 498 229 q 457 414 498 369 q 353 460 416 459 z "},"∑":{"ha":926,"x_min":47,"x_max":871,"o":"m 858 1042 l 858 692 l 690 692 l 669 870 l 256 870 l 593 370 l 257 -176 l 682 -176 l 694 7 l 871 7 l 871 -347 l 47 -347 l 47 -149 l 372 369 l 47 845 l 47 1042 l 858 1042 z "},"∏":{"ha":926,"x_min":28,"x_max":898,"o":"m 28 1042 l 898 1042 l 898 892 l 798 892 l 798 -197 l 898 -197 l 898 -347 l 538 -347 l 538 -197 l 631 -197 l 631 892 l 296 892 l 296 -197 l 386 -197 l 386 -347 l 28 -347 l 28 -197 l 130 -197 l 130 892 l 28 892 l 28 1042 z "},"π":{"ha":849,"x_min":28,"x_max":822,"o":"m 129 0 l 129 528 l 28 528 l 28 666 l 822 666 l 822 528 l 722 528 l 722 0 l 547 0 l 547 528 l 303 528 l 303 0 l 129 0 z "},"∫":{"ha":694,"x_min":75,"x_max":621,"o":"m 75 -333 l 107 -157 q 165 -170 142 -170 q 212 -158 191 -170 q 239 -125 232 -146 q 246 -92 245 -111 q 248 23 247 -73 l 248 637 q 250 801 248 754 q 262 881 253 847 q 361 1008 282 962 q 507 1042 418 1042 q 621 1027 546 1042 l 588 851 q 528 865 554 865 q 460 828 478 865 q 448 732 448 805 l 448 5 q 435 -180 448 -129 q 351 -298 418 -251 q 159 -346 285 -346 q 91 -336 125 -346 q 75 -333 82 -334 z "},"ª":{"ha":709,"x_min":131,"x_max":578,"o":"m 132 907 l 151 919 q 163 911 159 911 q 172 914 166 911 q 327 942 230 942 q 486 903 427 942 q 545 797 545 863 l 545 593 q 552 576 545 581 q 578 568 558 571 l 578 550 l 463 550 l 463 593 q 407 551 435 562 q 337 539 380 539 q 196 578 258 539 q 138 677 138 616 q 196 776 138 738 q 340 815 256 815 q 408 805 381 815 q 463 767 435 795 l 463 802 q 427 860 463 838 q 330 882 390 882 q 243 872 286 882 q 200 852 200 863 q 206 839 200 851 l 186 827 l 132 907 m 348 750 q 247 724 284 750 q 218 674 218 705 q 256 625 218 645 q 347 604 293 604 q 430 624 397 604 q 464 674 464 644 q 432 728 464 707 q 348 750 401 749 m 575 523 l 575 348 l 559 348 q 546 382 553 373 q 523 391 538 391 l 182 391 q 160 382 168 391 q 146 348 152 373 l 131 348 l 131 523 l 146 523 q 160 489 152 498 q 182 479 168 479 l 523 479 q 546 489 538 479 q 559 523 554 498 l 575 523 z "},"º":{"ha":709,"x_min":132,"x_max":576,"o":"m 354 943 q 500 898 441 943 q 571 747 571 844 q 500 602 571 656 q 355 557 442 557 q 208 602 267 557 q 138 750 138 656 q 197 888 138 836 q 354 943 256 941 m 354 867 q 267 834 301 867 q 233 750 233 801 q 268 666 233 699 q 355 633 302 633 q 441 666 407 633 q 475 748 475 699 q 442 833 475 801 q 354 867 408 866 m 576 523 l 576 348 l 560 348 q 547 382 555 373 q 524 391 540 391 l 184 391 q 161 382 169 391 q 148 348 153 373 l 132 348 l 132 523 l 148 523 q 161 489 153 498 q 184 479 169 479 l 524 479 q 547 489 539 479 q 560 523 555 498 l 576 523 z "},"Ω":{"ha":926,"x_min":34,"x_max":891,"o":"m 38 0 l 38 162 l 240 162 q 110 274 161 210 q 34 510 34 369 q 165 829 34 699 q 461 949 287 949 q 763 827 641 949 q 891 511 891 701 q 841 310 891 395 q 685 162 791 226 l 887 162 l 887 0 l 515 0 l 515 150 q 634 252 592 191 q 703 478 703 352 q 633 699 703 608 q 465 785 566 785 q 292 699 361 785 q 223 477 223 611 q 270 281 223 363 q 410 150 317 199 l 410 0 l 38 0 z "},"æ":{"ha":1417,"x_min":39,"x_max":1379,"o":"m 646 190 l 371 190 l 319 104 q 300 57 300 73 q 338 18 300 27 l 338 0 l 39 0 l 39 18 q 81 35 66 23 q 115 80 95 46 l 455 640 q 479 701 479 680 q 441 741 479 724 l 441 760 l 1289 760 q 1322 769 1311 760 q 1340 803 1333 779 l 1358 803 l 1358 578 l 1339 578 q 1322 612 1333 602 q 1289 622 1311 622 l 828 622 l 828 455 l 1114 455 q 1146 465 1135 455 q 1164 498 1158 475 l 1183 498 l 1183 279 l 1164 279 q 1146 313 1158 303 q 1114 323 1135 323 l 828 323 l 828 138 l 1310 138 q 1342 148 1331 138 q 1360 182 1354 157 l 1379 182 l 1379 -43 l 1360 -43 q 1342 -10 1354 -20 q 1310 0 1331 0 l 603 0 l 603 19 q 646 69 645 28 l 646 190 m 646 296 l 646 622 l 624 622 l 437 296 l 646 296 z "},"ø":{"ha":990,"x_min":50,"x_max":940,"o":"m 680 842 l 929 842 l 929 826 q 878 811 896 826 q 815 736 859 797 l 783 692 q 940 379 940 583 q 795 76 940 187 q 494 -16 676 -16 q 297 18 395 -16 l 286 4 q 270 -31 270 -18 q 311 -68 270 -60 l 311 -83 l 61 -83 l 61 -68 q 116 -40 96 -58 q 176 29 137 -22 l 204 68 q 116 159 147 115 q 50 379 50 251 q 195 684 50 572 q 496 776 314 776 q 697 739 597 776 l 709 755 q 720 787 720 771 q 709 811 720 800 q 680 826 697 822 l 680 842 m 389 147 q 493 127 443 127 q 686 203 613 127 q 755 380 755 273 q 686 557 755 484 l 389 147 m 604 612 q 500 633 555 633 q 303 557 377 633 q 235 380 235 486 q 303 203 235 278 l 604 612 z "},"¿":{"ha":678,"x_min":83,"x_max":650,"o":"m 534 261 l 650 90 l 633 78 l 627 81 q 604 88 612 88 q 546 60 589 88 q 432 1 482 18 q 325 -16 382 -16 q 168 28 231 -16 q 83 189 83 87 q 111 292 83 243 q 204 406 138 340 q 264 477 250 451 q 278 545 278 503 q 270 571 278 562 q 239 585 262 579 l 239 607 l 462 607 l 462 585 q 426 563 435 576 q 410 500 417 549 q 389 432 402 457 q 334 353 376 406 q 282 280 296 306 q 269 225 269 254 q 298 154 269 181 q 375 127 327 127 q 498 179 447 127 q 522 226 522 203 q 515 249 522 233 l 534 261 m 339 942 q 418 909 385 942 q 450 830 450 876 q 418 752 450 785 q 339 720 385 720 q 260 752 292 720 q 228 831 228 785 q 260 909 228 877 q 339 942 293 941 z "},"¡":{"ha":525,"x_min":120,"x_max":405,"o":"m 351 600 l 351 578 q 316 562 323 571 q 309 529 309 553 q 311 498 309 515 l 360 81 q 371 36 364 45 q 405 22 378 26 l 405 0 l 120 0 l 120 22 q 154 36 146 26 q 165 81 161 45 l 214 498 q 216 529 216 515 q 209 562 216 553 q 174 578 201 570 l 174 600 l 351 600 m 262 942 q 341 909 309 942 q 374 829 374 876 q 341 752 374 784 q 262 720 308 720 q 184 752 216 720 q 151 830 151 785 q 183 909 151 876 q 262 942 216 941 z "},"¬":{"ha":694,"x_min":46,"x_max":648,"o":"m 456 0 l 456 229 l 46 229 l 46 401 l 648 401 l 648 0 l 456 0 z "},"√":{"ha":926,"x_min":0,"x_max":926,"o":"m 926 1148 l 926 994 l 687 994 l 425 0 l 210 0 l 121 363 l 0 363 l 0 517 l 228 517 l 269 362 q 301 167 279 324 l 311 167 q 350 375 331 288 q 410 616 369 462 l 551 1148 l 926 1148 z "},"ƒ":{"ha":991,"x_min":3,"x_max":987,"o":"m 3 -37 l 107 137 l 123 130 q 119 115 119 120 q 147 77 119 95 q 206 60 175 60 q 306 105 272 60 q 340 210 328 134 l 380 463 l 319 463 q 286 454 298 463 q 263 420 274 444 l 241 420 l 279 654 l 300 654 q 313 620 303 630 q 342 610 322 610 l 404 610 l 422 734 q 453 837 431 785 q 503 920 475 888 q 747 1008 578 1008 q 843 998 809 1008 q 921 956 877 987 q 934 951 928 951 q 966 970 948 951 l 987 960 l 884 786 l 861 796 q 871 829 871 823 q 835 853 871 841 q 766 866 798 866 q 700 852 732 866 q 650 815 667 838 q 614 715 625 782 l 597 610 l 723 610 q 756 620 743 610 q 779 654 768 630 l 801 654 l 764 420 l 742 420 q 730 454 739 444 q 699 463 720 463 l 574 463 l 531 192 q 504 74 517 109 q 458 5 490 39 q 224 -83 374 -83 q 75 -41 135 -83 q 50 -29 58 -29 q 19 -45 37 -29 l 3 -37 z "},"≈":{"ha":694,"x_min":12,"x_max":682,"o":"m 108 484 l 12 551 q 70 657 40 619 q 215 736 130 736 q 364 691 261 736 q 485 652 454 652 q 537 669 514 652 q 586 728 560 686 l 682 661 q 618 545 649 584 q 479 474 559 474 q 428 482 455 474 q 338 517 401 490 q 208 559 241 559 q 157 542 180 559 q 108 484 135 525 m 108 191 l 12 258 q 70 364 41 326 q 216 444 130 444 q 364 399 262 444 q 485 359 453 359 q 537 376 514 359 q 586 435 560 393 l 682 367 q 618 252 649 290 q 479 180 559 180 q 429 189 455 180 q 338 224 403 197 q 208 266 240 266 q 108 191 157 266 z "},"∆":{"ha":895,"x_min":11,"x_max":884,"o":"m 11 0 l 350 926 l 543 926 l 884 0 l 11 0 m 249 162 l 642 162 l 448 728 l 249 162 z "},"«":{"ha":676,"x_min":83,"x_max":574,"o":"m 574 667 l 441 393 l 574 120 l 457 120 l 326 393 l 457 667 l 574 667 m 332 667 l 199 393 l 332 120 l 215 120 l 83 393 l 215 667 l 332 667 z "},"»":{"ha":676,"x_min":102,"x_max":593,"o":"m 102 667 l 219 667 l 351 393 l 219 120 l 102 120 l 235 393 l 102 667 m 344 667 l 460 667 l 593 393 l 460 120 l 344 120 l 477 393 l 344 667 z "},"…":{"ha":1278,"x_min":102,"x_max":1176,"o":"m 213 206 q 292 174 260 206 q 324 94 324 141 q 291 16 324 49 q 213 -16 258 -16 q 134 17 167 -16 q 102 96 102 50 q 134 173 102 141 q 213 206 166 205 m 639 206 q 718 174 686 206 q 750 94 750 141 q 717 16 750 49 q 639 -16 684 -16 q 560 17 593 -16 q 528 96 528 50 q 560 173 528 141 q 639 206 592 205 m 1065 206 q 1144 174 1112 206 q 1176 94 1176 141 q 1143 16 1176 49 q 1065 -16 1110 -16 q 986 17 1019 -16 q 954 96 954 50 q 986 173 954 141 q 1065 206 1018 205 z "},"À":{"ha":1130,"x_min":5,"x_max":1135,"o":"m 762 236 l 341 236 l 279 106 q 266 63 266 79 q 311 22 266 33 l 311 0 l 5 0 l 5 22 q 46 41 32 27 q 79 94 60 54 l 419 805 q 435 859 435 839 q 396 904 435 890 l 396 926 l 724 926 l 724 904 q 684 864 684 892 q 697 819 684 844 l 1050 106 q 1089 44 1072 60 q 1135 22 1106 27 l 1135 0 l 794 0 l 794 22 q 839 64 839 29 q 825 106 839 78 l 762 236 m 703 363 l 553 692 l 401 363 l 703 363 m 368 1197 l 574 1197 l 574 1179 q 555 1166 555 1177 q 558 1156 555 1162 l 603 1045 q 616 1025 609 1030 q 639 1021 623 1021 l 639 1002 l 492 1002 l 492 1021 q 495 1021 494 1021 q 509 1031 509 1021 q 505 1042 509 1038 l 408 1160 q 368 1179 395 1178 l 368 1197 z "},"Ã":{"ha":1130,"x_min":5,"x_max":1135,"o":"m 762 236 l 341 236 l 279 106 q 266 63 266 79 q 311 22 266 33 l 311 0 l 5 0 l 5 22 q 46 41 32 27 q 79 94 60 54 l 419 805 q 435 859 435 839 q 396 904 435 890 l 396 926 l 724 926 l 724 904 q 684 864 684 892 q 697 819 684 844 l 1050 106 q 1089 44 1072 60 q 1135 22 1106 27 l 1135 0 l 794 0 l 794 22 q 839 64 839 29 q 825 106 839 78 l 762 236 m 703 363 l 553 692 l 401 363 l 703 363 m 707 1186 l 805 1095 l 794 1082 q 769 1088 774 1088 q 751 1076 760 1088 q 655 1015 706 1015 q 597 1026 628 1015 l 497 1065 q 467 1070 482 1070 q 441 1059 454 1070 q 428 1036 428 1048 q 438 1015 428 1028 l 426 1006 l 325 1099 l 334 1111 q 357 1105 351 1105 q 383 1121 372 1105 q 486 1175 425 1175 q 530 1166 507 1175 l 631 1126 q 666 1120 649 1120 q 692 1131 680 1120 q 704 1154 704 1141 q 692 1176 704 1162 l 707 1186 z "},"Õ":{"ha":1188,"x_min":62,"x_max":1126,"o":"m 592 942 q 976 811 834 942 q 1126 457 1126 674 q 1054 209 1126 324 q 593 -16 913 -16 q 212 115 353 -16 q 96 282 136 184 q 62 463 62 368 q 133 718 62 602 q 592 942 269 938 m 593 785 q 372 707 460 785 q 268 463 268 614 q 372 220 268 313 q 594 141 460 141 q 815 220 728 141 q 895 334 867 267 q 920 459 920 395 q 815 707 920 616 q 593 785 726 784 m 745 1186 l 844 1095 l 833 1082 q 808 1088 813 1088 q 790 1076 799 1088 q 694 1015 745 1015 q 636 1026 667 1015 l 536 1065 q 506 1070 521 1070 q 479 1059 492 1070 q 467 1036 467 1048 q 477 1015 467 1028 l 465 1006 l 363 1099 l 373 1111 q 396 1105 389 1105 q 422 1121 410 1105 q 525 1175 463 1175 q 569 1166 546 1175 l 670 1126 q 705 1120 688 1120 q 730 1131 718 1120 q 743 1154 743 1141 q 731 1176 743 1162 l 745 1186 z "},"Œ":{"ha":1651,"x_min":62,"x_max":1591,"o":"m 925 406 l 925 153 l 1520 153 q 1552 162 1541 153 q 1569 196 1563 172 l 1591 196 l 1591 -43 l 1569 -43 q 1552 -9 1563 -19 q 1520 0 1541 0 l 723 0 q 687 -1 717 0 q 581 -5 608 -5 q 212 123 355 -5 q 96 286 136 191 q 62 463 62 370 q 134 711 62 598 q 374 896 216 840 q 586 931 473 931 l 723 926 l 1504 926 q 1535 935 1525 926 q 1553 970 1546 945 l 1575 970 l 1575 730 l 1553 730 q 1536 764 1546 755 q 1504 773 1525 773 l 925 773 l 925 553 l 1300 553 q 1332 563 1321 553 q 1350 597 1343 572 l 1371 597 l 1371 363 l 1350 363 q 1332 397 1343 387 q 1300 406 1321 406 l 925 406 m 723 773 q 610 781 663 781 q 357 694 445 781 q 268 463 268 606 q 357 231 268 319 q 608 145 446 145 q 723 153 657 145 l 723 773 z "},"œ":{"ha":1361,"x_min":39,"x_max":1322,"o":"m 772 323 l 772 138 l 1253 138 q 1286 147 1275 138 q 1304 182 1297 157 l 1322 182 l 1322 -43 l 1304 -43 q 1286 -9 1297 -19 q 1253 0 1275 0 l 588 0 q 526 -3 575 0 q 475 -5 500 -5 q 187 81 300 -5 q 84 202 123 130 q 39 380 39 286 q 119 611 39 508 q 296 735 186 696 q 475 765 380 765 l 588 760 l 1235 760 q 1268 769 1257 760 q 1286 803 1279 779 l 1304 803 l 1304 578 l 1286 578 q 1267 612 1278 603 q 1235 622 1257 622 l 772 622 l 772 455 l 1057 455 q 1090 465 1079 455 q 1108 498 1101 474 l 1126 498 l 1126 279 l 1108 279 q 1090 313 1101 303 q 1057 323 1079 323 l 772 323 m 590 622 q 495 629 543 629 q 304 566 374 629 q 224 380 224 494 q 304 193 224 265 q 494 130 374 130 q 590 138 541 130 l 590 622 z "},"–":{"ha":1069,"x_min":59,"x_max":1010,"o":"m 1010 495 l 1010 264 l 988 264 q 971 298 982 288 q 939 308 960 308 l 130 308 q 98 298 109 308 q 81 264 87 289 l 59 264 l 59 495 l 81 495 q 98 461 87 471 q 130 452 109 452 l 939 452 q 971 461 960 452 q 988 495 982 471 l 1010 495 z "},"—":{"ha":923,"x_min":0,"x_max":923,"o":"m 923 495 l 923 264 l 901 264 q 884 298 895 288 q 852 308 873 308 l 71 308 q 39 298 50 308 q 22 264 28 289 l 0 264 l 0 495 l 22 495 q 39 461 28 471 q 71 452 50 452 l 852 452 q 884 461 873 452 q 901 495 895 471 l 923 495 z "},"“":{"ha":750,"x_min":102,"x_max":648,"o":"m 292 899 q 212 827 237 862 q 178 738 187 793 q 225 746 209 746 q 297 715 270 746 q 324 633 324 684 q 297 553 324 583 q 224 524 269 524 q 130 574 163 524 q 102 682 102 618 q 259 942 102 831 l 292 899 m 616 899 q 536 827 561 862 q 501 738 511 793 q 549 746 533 746 q 621 715 594 746 q 648 633 648 684 q 621 553 648 583 q 548 524 593 524 q 454 574 487 524 q 426 682 426 618 q 583 942 426 831 l 616 899 z "},"”":{"ha":750,"x_min":102,"x_max":648,"o":"m 134 567 q 214 637 189 603 q 248 728 238 672 q 201 720 216 720 q 129 751 156 720 q 102 832 102 782 q 129 912 102 882 q 202 942 157 942 q 291 898 257 942 q 324 783 324 854 q 166 523 324 635 l 134 567 m 458 567 q 538 637 513 603 q 572 728 562 672 q 525 720 541 720 q 453 751 480 720 q 426 832 426 782 q 453 912 426 882 q 526 942 481 942 q 615 898 581 942 q 648 783 648 854 q 490 523 648 635 l 458 567 z "},"‘":{"ha":426,"x_min":102,"x_max":324,"o":"m 292 899 q 212 827 237 862 q 178 738 187 793 q 225 746 209 746 q 297 715 270 746 q 324 633 324 684 q 297 553 324 583 q 224 524 269 524 q 130 574 163 524 q 102 682 102 618 q 259 942 102 831 l 292 899 z "},"’":{"ha":426,"x_min":102,"x_max":324,"o":"m 134 567 q 214 637 189 603 q 248 728 238 672 q 201 720 216 720 q 129 751 156 720 q 102 832 102 782 q 129 912 102 882 q 202 942 157 942 q 291 898 257 942 q 324 783 324 854 q 166 523 324 635 l 134 567 z "},"÷":{"ha":1065,"x_min":159,"x_max":906,"o":"m 159 353 l 159 573 l 179 573 q 195 539 184 549 q 224 530 205 530 l 841 530 q 870 539 860 530 q 886 573 880 549 l 906 573 l 906 353 l 886 353 q 870 387 880 378 q 841 397 860 397 l 224 397 q 194 387 204 397 q 178 353 184 378 l 159 353 m 532 290 q 611 257 579 290 q 644 178 644 224 q 611 100 644 132 q 532 67 578 67 q 454 100 486 67 q 421 179 421 133 q 453 257 421 224 q 532 290 486 289 m 532 859 q 611 827 579 859 q 644 747 644 794 q 611 669 644 702 q 532 637 578 637 q 454 670 486 637 q 421 749 421 703 q 453 826 421 794 q 532 859 486 859 z "},"◊":{"ha":926,"x_min":102,"x_max":824,"o":"m 463 962 l 824 463 l 463 -36 l 102 463 l 463 962 m 463 839 l 189 463 l 463 87 l 736 463 l 463 839 z "},"ÿ":{"ha":831,"x_min":-15,"x_max":846,"o":"m 507 333 l 507 69 q 516 37 507 48 q 550 18 526 26 l 550 0 l 281 0 l 281 18 q 315 36 306 25 q 325 69 325 47 l 325 333 l 100 643 q 39 714 62 695 q -15 741 16 734 l -15 760 l 327 760 l 327 741 q 283 699 283 729 q 315 640 283 684 l 425 486 l 533 640 q 565 700 565 685 q 522 741 565 728 l 521 760 l 846 760 l 846 741 q 792 714 815 734 q 732 643 770 695 l 507 333 m 279 1024 q 344 998 318 1024 q 370 934 370 972 q 344 873 370 899 q 281 847 318 847 q 218 873 245 847 q 193 935 193 898 q 218 997 193 972 q 279 1024 243 1023 m 550 1024 q 613 998 587 1024 q 639 937 639 972 q 613 873 639 899 q 549 847 587 847 q 487 873 513 847 q 462 936 462 899 q 487 998 462 972 q 550 1024 513 1023 z "},"Ÿ":{"ha":990,"x_min":-18,"x_max":1008,"o":"m 596 387 l 596 71 q 606 39 596 50 q 640 22 616 28 l 640 0 l 349 0 l 349 22 q 384 39 374 28 q 394 71 394 50 l 394 387 l 95 808 q 34 881 56 863 q -18 904 12 900 l -18 926 l 347 926 l 347 904 q 302 862 302 897 q 330 808 302 850 l 496 560 l 668 808 q 696 863 696 848 q 684 889 696 878 q 650 904 671 901 l 650 926 l 1008 926 l 1008 904 q 956 881 978 900 q 895 808 934 863 l 596 387 m 359 1181 q 422 1156 397 1181 q 448 1090 448 1129 q 422 1030 448 1056 q 359 1004 397 1004 q 297 1030 323 1004 q 271 1093 271 1055 q 296 1155 271 1129 q 359 1181 321 1180 m 629 1181 q 692 1156 667 1181 q 718 1095 718 1129 q 692 1030 718 1056 q 628 1004 667 1004 q 567 1030 592 1004 q 541 1093 541 1057 q 567 1155 541 1130 q 629 1181 592 1181 z "},"∕":{"ha":399,"x_min":-185,"x_max":585,"o":"m 585 926 l 585 904 q 538 887 551 899 q 484 808 526 876 l 64 103 q 47 62 47 75 q 61 35 47 45 q 100 22 75 24 l 100 0 l -185 0 l -185 22 q -135 43 -151 28 q -81 119 -118 59 l 332 808 q 352 858 352 842 q 337 887 352 874 q 300 904 322 901 l 300 926 l 585 926 z "},"€":{"ha":991,"x_min":44,"x_max":920,"o":"m 920 65 l 902 53 q 871 71 883 71 q 803 39 861 71 q 583 -16 700 -16 q 321 66 431 -16 q 174 282 217 145 l 123 282 q 66 239 85 282 l 44 239 l 75 419 l 96 419 q 138 375 101 375 l 153 375 q 147 462 147 419 q 149 517 147 493 l 123 517 q 66 473 85 517 l 44 473 l 75 654 l 96 654 q 138 610 101 610 l 165 610 q 309 849 203 760 q 583 942 422 942 q 802 886 699 942 q 869 855 859 855 q 901 873 882 855 l 918 861 l 769 647 l 751 659 q 752 677 752 670 q 735 715 752 694 q 583 785 677 784 q 376 610 434 786 l 609 610 q 665 654 646 610 l 687 654 l 656 473 l 635 473 q 592 517 630 517 l 356 517 q 353 462 353 487 q 361 375 353 420 l 568 375 q 624 419 606 375 l 646 419 l 616 239 l 594 239 q 551 282 589 282 l 389 282 q 583 141 451 140 q 736 212 678 142 q 753 248 753 232 q 752 267 753 256 l 770 279 l 920 65 z "},"‹":{"ha":434,"x_min":83,"x_max":332,"o":"m 332 667 l 199 393 l 332 120 l 215 120 l 83 393 l 215 667 l 332 667 z "},"›":{"ha":434,"x_min":102,"x_max":351,"o":"m 102 667 l 219 667 l 351 393 l 219 120 l 102 120 l 235 393 l 102 667 z "},"":{"ha":1249,"x_min":66,"x_max":1181,"o":"m 292 323 l 292 69 q 301 37 292 48 q 335 18 311 26 l 335 0 l 66 0 l 66 19 q 100 37 90 25 q 110 69 110 48 l 110 690 q 100 722 110 711 q 66 741 91 733 l 66 760 l 747 760 q 780 769 769 760 q 798 803 791 779 l 817 803 l 817 578 l 798 578 q 780 612 791 602 q 747 622 769 622 l 292 622 l 292 455 l 578 455 q 610 465 600 455 q 629 498 621 474 l 647 498 l 647 279 l 629 279 q 611 313 622 303 q 578 323 600 323 l 292 323 m 1138 690 l 1138 69 q 1147 37 1138 48 q 1181 18 1157 25 l 1181 0 l 913 0 l 913 19 q 946 37 937 25 q 956 69 956 48 l 956 690 q 947 722 956 711 q 913 741 938 733 l 913 760 l 1181 760 l 1181 741 q 1147 723 1157 734 q 1138 690 1138 711 z "},"":{"ha":1644,"x_min":66,"x_max":1632,"o":"m 292 323 l 292 69 q 301 37 292 48 q 335 18 311 26 l 335 0 l 66 0 l 66 19 q 100 37 90 25 q 110 69 110 48 l 110 690 q 100 722 110 711 q 66 741 91 733 l 66 760 l 747 760 q 780 769 769 760 q 798 803 791 779 l 817 803 l 817 578 l 798 578 q 780 612 791 603 q 747 622 769 622 l 292 622 l 292 455 l 578 455 q 610 465 599 455 q 629 498 621 474 l 647 498 l 647 279 l 629 279 q 611 313 622 303 q 578 323 600 323 l 292 323 m 1138 138 l 1563 138 q 1596 147 1585 138 q 1614 182 1607 157 l 1632 182 l 1632 -43 l 1614 -43 q 1596 -9 1607 -19 q 1563 0 1585 0 l 913 0 l 913 19 q 946 37 937 25 q 956 69 956 48 l 956 690 q 947 722 956 711 q 913 741 938 733 l 913 760 l 1181 760 l 1181 741 q 1147 723 1157 734 q 1138 690 1138 711 l 1138 138 z "},"‡":{"ha":749,"x_min":65,"x_max":684,"o":"m 434 728 l 613 728 q 645 738 634 728 q 663 772 656 747 l 684 772 l 684 557 l 663 557 q 645 591 656 582 q 613 601 634 601 l 434 601 l 441 325 l 613 325 q 645 334 634 325 q 663 368 656 344 l 684 368 l 684 154 l 663 154 q 645 188 656 178 q 613 197 634 197 l 441 197 l 462 -22 q 472 -55 464 -45 q 505 -71 481 -64 l 505 -93 l 244 -93 l 244 -71 q 277 -55 269 -64 q 288 -22 286 -45 l 309 197 l 155 197 q 107 190 119 197 q 87 154 95 182 l 65 154 l 65 368 l 87 368 q 105 334 94 343 q 136 325 115 325 l 309 325 l 315 601 l 136 601 q 104 591 115 601 q 87 557 94 582 l 65 557 l 65 772 l 87 772 q 107 736 95 744 q 155 728 119 728 l 315 728 l 288 947 q 277 981 285 972 q 244 997 269 990 l 244 1019 l 505 1019 l 505 997 q 472 981 481 990 q 462 947 464 971 l 434 728 z "},"∙":{"ha":426,"x_min":102,"x_max":324,"o":"m 213 454 q 292 421 260 454 q 324 342 324 389 q 291 264 324 296 q 213 231 258 231 q 134 264 167 231 q 102 343 102 297 q 134 421 102 389 q 213 454 166 453 z "},"‚":{"ha":426,"x_min":102,"x_max":324,"o":"m 134 -170 q 214 -98 189 -133 q 248 -9 238 -64 q 201 -16 216 -16 q 129 15 156 -16 q 102 96 102 46 q 129 176 102 146 q 202 206 157 206 q 296 156 263 206 q 324 47 324 111 q 166 -213 324 -102 l 134 -170 z "},"„":{"ha":750,"x_min":102,"x_max":648,"o":"m 134 -170 q 214 -98 189 -133 q 248 -9 238 -64 q 201 -16 216 -16 q 129 15 156 -16 q 102 96 102 46 q 129 176 102 146 q 202 206 157 206 q 296 156 263 206 q 324 47 324 111 q 166 -213 324 -102 l 134 -170 m 458 -170 q 538 -98 513 -133 q 572 -9 562 -64 q 525 -16 540 -16 q 453 15 480 -16 q 426 96 426 46 q 453 176 426 146 q 526 206 481 206 q 620 156 587 206 q 648 47 648 111 q 490 -213 648 -101 l 458 -170 z "},"‰":{"ha":1793,"x_min":46,"x_max":1746,"o":"m 282 934 q 446 874 381 934 q 519 691 519 807 q 446 514 519 581 q 283 454 381 454 q 119 514 184 454 q 46 694 46 582 q 119 874 46 808 q 282 934 184 932 m 283 837 q 197 797 230 837 q 163 694 163 758 q 197 591 163 631 q 283 551 230 551 q 369 591 335 551 q 402 692 402 631 q 370 797 402 758 q 283 837 337 836 m 943 471 q 1107 412 1042 471 q 1181 229 1181 345 q 1107 52 1181 119 q 944 -8 1042 -8 q 781 52 846 -8 q 707 232 707 119 q 781 412 707 346 q 943 471 846 470 m 944 374 q 858 335 891 374 q 825 231 825 295 q 858 129 825 168 q 944 89 891 89 q 1030 129 996 89 q 1063 230 1063 168 q 1031 334 1063 295 q 944 374 998 374 m 936 808 l 391 103 q 366 57 366 71 q 407 22 366 30 l 407 0 l 165 0 l 165 22 q 220 43 200 27 q 287 119 240 59 l 821 808 q 851 863 851 846 q 810 904 851 893 l 810 926 l 1051 926 l 1051 904 q 1001 886 1017 899 q 936 808 985 873 m 1509 471 q 1673 412 1608 471 q 1746 229 1746 345 q 1673 52 1746 119 q 1510 -8 1608 -8 q 1346 52 1411 -8 q 1273 232 1273 119 q 1346 412 1273 346 q 1509 471 1411 470 m 1510 374 q 1423 335 1457 374 q 1390 231 1390 295 q 1423 129 1390 168 q 1510 89 1457 89 q 1595 129 1562 89 q 1629 230 1629 168 q 1596 334 1629 295 q 1510 374 1564 374 z "},"Â":{"ha":1130,"x_min":5,"x_max":1135,"o":"m 762 236 l 341 236 l 279 106 q 266 63 266 79 q 311 22 266 33 l 311 0 l 5 0 l 5 22 q 46 41 32 27 q 79 94 60 54 l 419 805 q 435 859 435 839 q 396 904 435 890 l 396 926 l 724 926 l 724 904 q 684 864 684 892 q 697 819 684 844 l 1050 106 q 1089 44 1072 60 q 1135 22 1106 27 l 1135 0 l 794 0 l 794 22 q 839 64 839 29 q 825 106 839 78 l 762 236 m 703 363 l 553 692 l 401 363 l 703 363 m 500 1002 l 330 1002 l 330 1021 q 351 1024 347 1021 q 377 1049 356 1027 l 468 1150 q 475 1167 475 1158 q 453 1179 475 1179 l 453 1197 l 667 1197 l 667 1179 q 647 1166 647 1177 q 658 1147 647 1159 l 760 1034 q 790 1021 770 1021 l 790 1002 l 595 1002 l 595 1021 q 616 1031 616 1022 q 606 1046 616 1034 l 549 1116 l 486 1044 q 480 1032 480 1038 q 500 1021 480 1022 l 500 1002 z "},"Ê":{"ha":1055,"x_min":83,"x_max":995,"o":"m 329 406 l 329 153 l 924 153 q 956 162 945 153 q 973 196 966 172 l 995 196 l 995 -43 l 973 -43 q 956 -9 966 -19 q 924 0 945 0 l 83 0 l 83 22 q 117 39 108 28 q 127 71 127 50 l 127 854 q 117 886 127 876 q 83 904 108 897 l 83 926 l 908 926 q 939 936 928 926 q 957 970 950 945 l 979 970 l 979 730 l 957 730 q 939 764 950 754 q 908 773 928 773 l 329 773 l 329 553 l 705 553 q 736 563 725 553 q 753 597 747 572 l 775 597 l 775 363 l 753 363 q 736 396 747 387 q 705 406 725 406 l 329 406 m 484 1002 l 314 1002 l 314 1021 q 335 1024 330 1021 q 361 1049 340 1027 l 452 1150 q 459 1167 459 1158 q 437 1179 459 1179 l 437 1197 l 651 1197 l 651 1179 q 631 1166 631 1177 q 642 1147 631 1159 l 743 1034 q 774 1021 754 1021 l 774 1002 l 579 1002 l 579 1021 q 600 1031 600 1022 q 589 1046 600 1034 l 532 1116 l 470 1044 q 464 1032 464 1038 q 484 1021 464 1022 l 484 1002 z "},"Á":{"ha":1130,"x_min":5,"x_max":1135,"o":"m 762 236 l 341 236 l 279 106 q 266 63 266 79 q 311 22 266 33 l 311 0 l 5 0 l 5 22 q 46 41 32 27 q 79 94 60 54 l 419 805 q 435 859 435 839 q 396 904 435 890 l 396 926 l 724 926 l 724 904 q 684 864 684 892 q 697 819 684 844 l 1050 106 q 1089 44 1072 60 q 1135 22 1106 27 l 1135 0 l 794 0 l 794 22 q 839 64 839 29 q 825 106 839 78 l 762 236 m 703 363 l 553 692 l 401 363 l 703 363 m 751 1197 l 751 1179 q 711 1160 725 1178 l 615 1042 q 611 1031 611 1038 q 625 1021 611 1021 q 628 1021 626 1021 l 628 1002 l 481 1002 l 481 1021 q 504 1025 497 1021 q 517 1045 511 1030 l 562 1156 q 564 1166 564 1162 q 545 1179 564 1177 l 545 1197 l 751 1197 z "},"Ë":{"ha":1055,"x_min":83,"x_max":995,"o":"m 329 406 l 329 153 l 924 153 q 956 162 945 153 q 973 196 966 172 l 995 196 l 995 -43 l 973 -43 q 956 -9 966 -19 q 924 0 945 0 l 83 0 l 83 22 q 117 39 108 28 q 127 71 127 50 l 127 854 q 117 886 127 876 q 83 904 108 897 l 83 926 l 908 926 q 939 936 928 926 q 957 970 950 945 l 979 970 l 979 730 l 957 730 q 939 764 950 754 q 908 773 928 773 l 329 773 l 329 553 l 705 553 q 736 563 725 553 q 753 597 747 572 l 775 597 l 775 363 l 753 363 q 736 396 747 387 q 705 406 725 406 l 329 406 m 408 1181 q 472 1156 446 1181 q 498 1090 498 1129 q 472 1030 498 1056 q 409 1004 446 1004 q 347 1030 373 1004 q 321 1093 321 1055 q 346 1155 321 1129 q 408 1181 371 1180 m 678 1181 q 741 1156 715 1181 q 767 1095 767 1129 q 741 1030 767 1056 q 677 1004 715 1004 q 615 1030 641 1004 q 590 1093 590 1057 q 615 1155 590 1129 q 678 1181 641 1181 z "},"È":{"ha":1055,"x_min":83,"x_max":995,"o":"m 329 406 l 329 153 l 924 153 q 956 162 945 153 q 973 196 966 172 l 995 196 l 995 -43 l 973 -43 q 956 -9 966 -19 q 924 0 945 0 l 83 0 l 83 22 q 117 39 108 28 q 127 71 127 50 l 127 854 q 117 886 127 876 q 83 904 108 897 l 83 926 l 908 926 q 939 936 928 926 q 957 970 950 945 l 979 970 l 979 730 l 957 730 q 939 764 950 754 q 908 773 928 773 l 329 773 l 329 553 l 705 553 q 736 563 725 553 q 753 597 747 572 l 775 597 l 775 363 l 753 363 q 736 396 747 387 q 705 406 725 406 l 329 406 m 362 1197 l 568 1197 l 568 1179 q 549 1166 549 1177 q 552 1156 549 1162 l 597 1045 q 610 1025 603 1030 q 633 1021 616 1021 l 633 1002 l 486 1002 l 486 1021 q 489 1021 488 1021 q 503 1031 503 1021 q 498 1042 503 1038 l 402 1160 q 362 1179 389 1178 l 362 1197 z "},"Í":{"ha":456,"x_min":83,"x_max":420,"o":"m 127 71 l 127 855 q 117 886 127 876 q 83 904 108 897 l 83 926 l 372 926 l 372 904 q 338 887 348 898 q 329 855 329 876 l 329 71 q 339 39 329 50 q 372 22 349 28 l 372 0 l 83 0 l 83 22 q 117 39 108 28 q 127 71 127 50 m 420 1197 l 420 1179 q 380 1160 393 1178 l 283 1042 q 279 1031 279 1038 q 294 1021 279 1021 q 296 1021 294 1021 l 296 1002 l 149 1002 l 149 1021 q 172 1025 165 1021 q 185 1045 179 1030 l 230 1156 q 233 1166 233 1162 q 214 1179 233 1177 l 214 1197 l 420 1197 z "},"Î":{"ha":455,"x_min":2,"x_max":462,"o":"m 127 71 l 127 855 q 117 886 127 876 q 83 904 108 897 l 83 926 l 372 926 l 372 904 q 338 887 348 898 q 329 855 329 876 l 329 71 q 339 39 329 50 q 372 22 349 28 l 372 0 l 83 0 l 83 22 q 117 39 108 28 q 127 71 127 50 m 172 1002 l 2 1002 l 2 1021 q 23 1024 18 1021 q 49 1049 28 1027 l 140 1150 q 147 1167 147 1158 q 125 1179 147 1179 l 125 1197 l 339 1197 l 339 1179 q 319 1166 319 1177 q 330 1147 319 1159 l 431 1034 q 462 1021 442 1021 l 462 1002 l 267 1002 l 267 1021 q 288 1031 288 1022 q 277 1046 288 1034 l 220 1116 l 158 1044 q 152 1032 152 1038 q 172 1021 152 1022 l 172 1002 z "},"Ï":{"ha":455,"x_min":28,"x_max":428,"o":"m 127 71 l 127 855 q 117 886 127 876 q 83 904 108 897 l 83 926 l 372 926 l 372 904 q 338 887 348 898 q 329 855 329 876 l 329 71 q 339 39 329 50 q 372 22 349 28 l 372 0 l 83 0 l 83 22 q 117 39 108 28 q 127 71 127 50 m 115 1181 q 179 1156 153 1181 q 205 1090 205 1129 q 179 1030 205 1056 q 116 1004 153 1004 q 54 1030 80 1004 q 28 1093 28 1055 q 53 1155 28 1129 q 115 1181 78 1180 m 339 1181 q 402 1156 376 1181 q 428 1095 428 1129 q 402 1030 428 1056 q 337 1004 376 1004 q 276 1030 302 1004 q 251 1093 251 1057 q 276 1155 251 1129 q 339 1181 302 1181 z "},"Ì":{"ha":456,"x_min":35,"x_max":372,"o":"m 127 71 l 127 855 q 117 886 127 876 q 83 904 108 897 l 83 926 l 372 926 l 372 904 q 338 887 348 898 q 329 855 329 876 l 329 71 q 339 39 329 50 q 372 22 349 28 l 372 0 l 83 0 l 83 22 q 117 39 108 28 q 127 71 127 50 m 35 1197 l 241 1197 l 241 1179 q 222 1166 222 1177 q 225 1156 222 1162 l 270 1045 q 283 1025 276 1030 q 306 1021 290 1021 l 306 1002 l 159 1002 l 159 1021 q 162 1021 161 1021 q 176 1031 176 1021 q 172 1042 176 1038 l 75 1160 q 35 1179 62 1178 l 35 1197 z "},"Ó":{"ha":1188,"x_min":62,"x_max":1126,"o":"m 592 942 q 976 811 834 942 q 1126 457 1126 674 q 1054 209 1126 324 q 593 -16 913 -16 q 212 115 353 -16 q 96 282 136 184 q 62 463 62 368 q 133 718 62 602 q 592 942 269 938 m 593 785 q 372 707 460 785 q 268 463 268 614 q 372 220 268 313 q 594 141 460 141 q 815 220 728 141 q 895 334 867 267 q 920 459 920 395 q 815 707 920 616 q 593 785 726 784 m 780 1197 l 780 1179 q 740 1160 753 1178 l 644 1042 q 640 1031 640 1038 q 654 1021 640 1021 q 656 1021 654 1021 l 656 1002 l 509 1002 l 509 1021 q 532 1025 526 1021 q 545 1045 539 1030 l 590 1156 q 593 1166 593 1162 q 574 1179 593 1177 l 574 1197 l 780 1197 z "},"Ô":{"ha":1188,"x_min":62,"x_max":1126,"o":"m 592 942 q 976 811 834 942 q 1126 457 1126 674 q 1054 209 1126 324 q 593 -16 913 -16 q 212 115 353 -16 q 96 282 136 184 q 62 463 62 368 q 133 718 62 602 q 592 942 269 938 m 593 785 q 372 707 460 785 q 268 463 268 614 q 372 220 268 313 q 594 141 460 141 q 815 220 728 141 q 895 334 867 267 q 920 459 920 395 q 815 707 920 616 q 593 785 726 784 m 534 1002 l 364 1002 l 364 1021 q 385 1024 380 1021 q 411 1049 390 1027 l 502 1150 q 509 1167 509 1158 q 487 1179 509 1179 l 487 1197 l 701 1197 l 701 1179 q 681 1166 681 1177 q 692 1147 681 1159 l 793 1034 q 824 1021 804 1021 l 824 1002 l 629 1002 l 629 1021 q 650 1031 650 1022 q 640 1046 650 1034 l 583 1116 l 520 1044 q 514 1032 514 1038 q 534 1021 514 1022 l 534 1002 z "},"Ò":{"ha":1188,"x_min":62,"x_max":1126,"o":"m 592 942 q 976 811 834 942 q 1126 457 1126 674 q 1054 209 1126 324 q 593 -16 913 -16 q 212 115 353 -16 q 96 282 136 184 q 62 463 62 368 q 133 718 62 602 q 592 942 269 938 m 593 785 q 372 707 460 785 q 268 463 268 614 q 372 220 268 313 q 594 141 460 141 q 815 220 728 141 q 895 334 867 267 q 920 459 920 395 q 815 707 920 616 q 593 785 726 784 m 412 1197 l 618 1197 l 618 1179 q 600 1166 600 1177 q 602 1156 600 1162 l 647 1045 q 660 1025 653 1030 q 683 1021 667 1021 l 683 1002 l 536 1002 l 536 1021 q 539 1021 538 1021 q 553 1031 553 1021 q 549 1042 553 1038 l 452 1160 q 412 1179 439 1178 l 412 1197 z "},"Ú":{"ha":1133,"x_min":65,"x_max":1069,"o":"m 1025 854 l 1025 336 q 971 115 1025 189 q 568 -16 873 -16 q 229 55 347 -16 q 134 168 161 96 q 109 336 109 238 l 109 854 q 99 886 109 876 q 65 904 90 897 l 65 926 l 355 926 l 355 904 q 320 887 330 898 q 311 854 311 876 l 311 393 q 319 274 311 313 q 353 210 328 236 q 575 141 418 141 q 798 210 733 141 q 831 274 822 236 q 840 393 840 313 l 840 854 q 830 886 840 876 q 796 904 821 897 l 796 926 l 1069 926 l 1069 904 q 1035 886 1044 897 q 1025 854 1025 876 m 753 1197 l 753 1179 q 713 1160 726 1178 l 616 1042 q 612 1031 612 1038 q 627 1021 612 1021 q 629 1021 627 1021 l 629 1002 l 482 1002 l 482 1021 q 505 1025 498 1021 q 518 1045 512 1030 l 563 1156 q 566 1166 566 1162 q 547 1179 566 1177 l 547 1197 l 753 1197 z "},"Û":{"ha":1133,"x_min":65,"x_max":1069,"o":"m 1025 854 l 1025 336 q 971 115 1025 189 q 568 -16 873 -16 q 229 55 347 -16 q 134 168 161 96 q 109 336 109 238 l 109 854 q 99 886 109 876 q 65 904 90 897 l 65 926 l 355 926 l 355 904 q 320 887 330 898 q 311 854 311 876 l 311 393 q 319 274 311 313 q 353 210 328 236 q 575 141 418 141 q 798 210 733 141 q 831 274 822 236 q 840 393 840 313 l 840 854 q 830 886 840 876 q 796 904 821 897 l 796 926 l 1069 926 l 1069 904 q 1035 886 1044 897 q 1025 854 1025 876 m 511 1002 l 342 1002 l 342 1021 q 363 1024 358 1021 q 389 1049 368 1027 l 479 1150 q 487 1167 487 1158 q 465 1179 487 1179 l 465 1197 l 679 1197 l 679 1179 q 659 1166 659 1177 q 669 1147 659 1159 l 771 1034 q 802 1021 782 1021 l 802 1002 l 607 1002 l 607 1021 q 628 1031 628 1022 q 617 1046 628 1034 l 560 1116 l 498 1044 q 492 1032 492 1038 q 511 1021 492 1022 l 511 1002 z "},"Ù":{"ha":1133,"x_min":65,"x_max":1069,"o":"m 1025 854 l 1025 336 q 971 115 1025 189 q 568 -16 873 -16 q 229 55 347 -16 q 134 168 161 96 q 109 336 109 238 l 109 854 q 99 886 109 876 q 65 904 90 897 l 65 926 l 355 926 l 355 904 q 320 887 330 898 q 311 854 311 876 l 311 393 q 319 274 311 313 q 353 210 328 236 q 575 141 418 141 q 798 210 733 141 q 831 274 822 236 q 840 393 840 313 l 840 854 q 830 886 840 876 q 796 904 821 897 l 796 926 l 1069 926 l 1069 904 q 1035 886 1044 897 q 1025 854 1025 876 m 390 1197 l 596 1197 l 596 1179 q 577 1166 577 1177 q 580 1156 577 1162 l 625 1045 q 637 1025 631 1030 q 661 1021 644 1021 l 661 1002 l 513 1002 l 513 1021 q 517 1021 515 1021 q 530 1031 530 1021 q 526 1042 530 1038 l 430 1160 q 390 1179 416 1178 l 390 1197 z "},"ı":{"ha":402,"x_min":66,"x_max":335,"o":"m 292 690 l 292 69 q 301 37 292 48 q 335 18 311 26 l 335 0 l 66 0 l 66 19 q 100 37 90 25 q 110 69 110 48 l 110 690 q 100 722 110 711 q 66 741 91 733 l 66 760 l 335 760 l 335 741 q 301 723 311 734 q 292 690 292 711 z "},"ˆ":{"ha":694,"x_min":117,"x_max":577,"o":"m 287 845 l 117 845 l 117 863 q 138 867 134 864 q 164 892 143 870 l 255 993 q 262 1010 262 1001 q 240 1021 262 1021 l 240 1040 l 454 1040 l 454 1021 q 434 1009 434 1019 q 445 990 434 1002 l 547 877 q 577 863 557 864 l 577 845 l 382 845 l 382 863 q 404 873 404 865 q 393 889 404 876 l 336 959 l 273 887 q 267 875 267 881 q 287 863 267 865 l 287 845 z "},"˜":{"ha":694,"x_min":107,"x_max":587,"o":"m 489 1029 l 587 938 l 576 924 q 551 930 557 930 q 534 919 543 930 q 437 857 488 857 q 380 869 411 857 l 279 907 q 250 912 266 912 q 223 901 236 912 q 210 878 210 890 q 220 858 210 870 l 208 848 l 107 942 l 117 954 q 140 948 132 948 q 165 963 154 948 q 269 1017 208 1017 q 313 1008 291 1017 l 414 969 q 448 962 433 962 q 474 972 462 962 q 486 996 486 983 q 475 1018 486 1005 l 489 1029 z "},"ˉ":{"ha":694,"x_min":139,"x_max":555,"o":"m 555 1019 l 555 842 l 537 842 q 519 871 530 863 q 488 880 509 880 l 207 880 q 176 872 186 880 q 157 842 165 864 l 139 842 l 139 1019 l 157 1019 q 176 990 165 998 q 207 981 186 981 l 488 981 q 518 990 507 981 q 537 1019 530 998 l 555 1019 z "},"˘":{"ha":694,"x_min":132,"x_max":563,"o":"m 132 1020 l 132 1037 l 274 1037 l 274 1020 q 258 1018 261 1020 q 254 1008 254 1016 q 282 959 254 979 q 347 938 309 938 q 413 959 385 938 q 440 1008 440 979 q 437 1018 440 1016 q 420 1020 433 1020 l 420 1037 l 563 1037 l 563 1020 q 544 1005 545 1019 q 515 922 542 960 q 347 842 461 842 q 179 922 233 842 q 151 1005 153 960 q 132 1020 150 1019 z "},"˙":{"ha":694,"x_min":259,"x_max":436,"o":"m 346 1024 q 410 998 385 1024 q 436 934 436 972 q 410 873 436 899 q 347 847 385 847 q 285 873 311 847 q 259 935 259 898 q 284 997 259 972 q 346 1024 309 1023 z "},"˚":{"ha":694,"x_min":192,"x_max":503,"o":"m 347 1072 q 457 1035 412 1072 q 503 944 503 997 q 457 854 503 890 q 347 817 410 817 q 237 854 283 817 q 192 945 192 892 q 236 1035 192 999 q 347 1072 281 1072 m 347 1002 q 298 986 317 1002 q 279 945 279 970 q 299 904 279 921 q 347 888 319 888 q 395 904 375 888 q 416 944 416 921 q 397 985 416 969 q 347 1002 378 1002 z "},"¸":{"ha":694,"x_min":197,"x_max":498,"o":"m 256 -152 l 292 -85 q 304 -67 300 -70 q 318 -65 307 -65 q 451 -93 404 -65 q 498 -172 498 -121 q 458 -252 498 -220 q 334 -285 415 -285 q 197 -266 254 -285 l 212 -234 q 281 -245 250 -245 q 351 -230 326 -245 q 377 -188 377 -214 q 363 -154 377 -168 q 328 -140 349 -140 q 277 -164 298 -140 l 256 -152 z "},"˝":{"ha":694,"x_min":157,"x_max":676,"o":"m 422 1040 l 422 1021 q 382 1003 395 1021 l 286 885 q 281 874 281 880 q 296 863 281 863 q 298 863 296 863 l 298 845 l 157 845 l 157 863 q 180 868 174 863 q 193 888 187 873 l 238 998 q 241 1008 241 1005 q 222 1021 242 1019 l 222 1040 l 422 1040 m 676 1040 l 676 1021 q 636 1003 650 1021 l 541 885 q 536 874 536 880 q 551 863 536 863 q 553 863 551 863 l 553 845 l 412 845 l 412 863 q 435 868 428 863 q 448 888 441 873 l 493 998 q 496 1008 496 1006 q 476 1021 496 1019 l 476 1040 l 676 1040 z "},"˛":{"ha":694,"x_min":518,"x_max":788,"o":"m 629 0 l 715 0 q 640 -117 640 -58 q 663 -168 640 -149 q 728 -186 687 -186 q 777 -179 744 -186 l 788 -208 q 676 -225 731 -225 q 566 -203 604 -225 q 518 -121 518 -174 q 561 -41 518 -72 q 629 0 579 -26 z "},"ˇ":{"ha":694,"x_min":117,"x_max":577,"o":"m 408 1040 l 577 1040 l 577 1021 q 556 1018 561 1021 q 530 993 551 1015 l 439 892 q 432 875 432 884 q 454 863 432 863 l 454 845 l 240 845 l 240 863 q 260 876 260 865 q 250 895 260 883 l 148 1008 q 117 1021 137 1021 l 117 1040 l 312 1040 l 312 1021 q 291 1011 291 1019 q 302 996 291 1008 l 359 926 l 422 998 q 427 1010 427 1004 q 408 1021 427 1020 l 408 1040 z "},"¦":{"ha":694,"x_min":248,"x_max":446,"o":"m 248 926 l 446 926 l 446 440 l 248 440 l 248 926 m 248 213 l 446 213 l 446 -231 l 248 -231 l 248 213 z "},"­":{"ha":309,"x_min":0,"x_max":309,"o":"m 309 497 l 309 262 l 287 262 q 269 296 280 287 q 237 306 258 306 l 71 306 q 39 296 50 306 q 22 262 28 286 l 0 262 l 0 497 l 22 497 q 39 463 28 473 q 71 453 50 453 l 237 453 q 269 463 258 453 q 287 497 280 472 l 309 497 z "},"¯":{"ha":694,"x_min":0,"x_max":694,"o":"m 0 1125 l 694 1125 l 694 1007 l 0 1007 l 0 1125 z "},"²":{"ha":657,"x_min":43,"x_max":615,"o":"m 212 478 l 565 478 q 583 483 578 478 q 593 504 589 488 l 615 504 l 615 345 l 593 345 q 583 365 589 360 q 565 370 578 370 l 104 370 q 76 366 82 370 q 66 345 69 362 l 43 345 q 43 374 43 368 q 85 515 43 459 q 154 577 115 552 q 271 636 193 603 l 345 667 q 417 711 395 688 q 439 764 439 733 q 338 833 439 833 q 222 805 277 833 q 173 753 173 779 q 180 727 173 747 l 165 713 l 43 834 l 60 848 q 85 840 77 840 q 115 857 93 840 q 353 935 212 935 q 518 888 456 935 q 581 762 581 841 q 541 653 581 699 q 416 572 501 608 l 349 545 q 301 526 342 542 q 212 478 231 500 z "},"³":{"ha":657,"x_min":24,"x_max":614,"o":"m 523 663 q 614 541 614 629 q 528 403 614 450 q 340 361 452 361 q 123 405 220 361 q 73 422 83 422 q 44 406 63 422 l 24 416 l 98 571 l 119 563 q 116 552 116 556 q 184 491 116 518 q 338 464 253 464 q 439 485 402 464 q 476 541 476 505 q 344 614 476 614 q 287 608 301 614 q 268 586 272 603 l 246 586 l 246 729 l 268 729 q 286 705 273 710 q 342 700 298 700 q 431 718 399 700 q 464 766 464 735 q 432 815 464 798 q 339 833 399 833 q 215 811 273 833 q 157 766 157 790 q 164 746 157 758 l 146 733 l 41 853 l 58 866 q 82 859 75 859 q 103 867 90 859 q 349 935 214 935 q 510 901 444 935 q 591 774 591 858 q 523 663 591 702 z "},"¹":{"ha":657,"x_min":199,"x_max":447,"o":"m 199 720 l 199 874 l 220 874 l 224 865 q 239 850 228 850 q 250 852 243 850 l 284 860 l 284 880 q 278 896 284 890 q 256 905 273 901 l 256 926 l 447 926 l 447 905 q 425 896 431 901 q 419 880 419 891 l 419 417 q 425 400 419 406 q 447 391 431 395 l 447 370 l 256 370 l 256 391 q 279 400 273 395 q 284 417 284 406 l 284 757 l 250 749 q 230 741 235 746 q 220 720 225 735 l 199 720 z "},"¼":{"ha":1713,"x_min":199,"x_max":1685,"o":"m 199 720 l 199 874 l 220 874 l 224 865 q 239 850 228 850 q 250 852 243 850 l 284 860 l 284 880 q 278 896 284 890 q 256 905 273 901 l 256 926 l 447 926 l 447 905 q 425 896 431 901 q 419 880 419 891 l 419 417 q 425 400 419 406 q 447 391 431 395 l 447 370 l 256 370 l 256 391 q 279 400 273 395 q 284 417 284 406 l 284 757 l 250 749 q 230 741 235 746 q 220 720 225 735 l 199 720 m 1242 926 l 1242 904 q 1196 887 1209 899 q 1141 808 1183 876 l 722 103 q 705 62 705 75 q 719 35 705 45 q 758 22 733 24 l 758 0 l 473 0 l 473 22 q 523 43 507 27 q 576 119 540 59 l 989 808 q 1010 858 1010 842 q 995 887 1010 874 q 958 904 980 901 l 958 926 l 1242 926 m 1472 92 l 1165 92 q 1134 88 1141 92 q 1124 66 1127 84 l 1102 66 l 1102 189 l 1398 495 q 1416 521 1416 514 q 1394 534 1416 531 l 1394 555 l 1635 555 l 1635 534 q 1613 525 1619 530 q 1607 509 1607 520 l 1607 191 l 1636 191 q 1653 196 1648 191 q 1664 217 1659 201 l 1685 217 l 1685 66 l 1664 66 q 1653 87 1659 82 q 1636 92 1648 92 l 1607 92 l 1607 47 q 1613 30 1607 35 q 1635 21 1619 25 l 1635 0 l 1444 0 l 1444 21 q 1467 30 1461 25 q 1472 47 1472 35 l 1472 92 m 1472 191 l 1472 415 l 1259 191 l 1472 191 z "},"½":{"ha":1714,"x_min":199,"x_max":1671,"o":"m 199 720 l 199 874 l 220 874 l 224 865 q 239 850 229 850 q 250 852 243 850 l 284 860 l 284 880 q 278 896 284 891 q 256 905 273 901 l 256 926 l 447 926 l 447 905 q 425 896 430 901 q 419 880 419 891 l 419 417 q 425 400 419 406 q 447 391 431 395 l 447 370 l 256 370 l 256 391 q 279 400 273 395 q 284 417 284 406 l 284 757 l 250 749 q 230 741 235 746 q 220 720 225 736 l 199 720 m 1242 926 l 1242 904 q 1196 887 1209 899 q 1141 808 1183 876 l 722 103 q 705 62 705 75 q 719 35 705 45 q 758 22 733 24 l 758 0 l 473 0 l 473 22 q 523 43 507 27 q 576 119 540 59 l 989 808 q 1010 858 1010 842 q 995 887 1010 874 q 958 904 980 901 l 958 926 l 1242 926 m 1268 108 l 1621 108 q 1639 113 1634 108 q 1649 133 1645 118 l 1671 133 l 1671 -26 l 1649 -26 q 1639 -5 1645 -10 q 1621 0 1634 0 l 1160 0 q 1132 -4 1138 0 q 1122 -26 1125 -8 l 1099 -26 q 1099 4 1099 -2 q 1142 144 1099 88 q 1209 207 1171 181 q 1327 265 1248 232 l 1400 296 q 1473 340 1451 317 q 1495 393 1495 363 q 1394 463 1495 463 q 1279 435 1333 463 q 1229 382 1229 409 q 1236 356 1229 377 l 1221 342 l 1099 463 l 1116 477 q 1141 469 1134 469 q 1171 488 1149 469 q 1409 565 1268 565 q 1574 518 1512 565 q 1636 391 1636 471 q 1597 282 1636 328 q 1472 201 1557 237 l 1404 174 q 1357 156 1401 172 q 1268 108 1286 129 z "},"¾":{"ha":1713,"x_min":24,"x_max":1685,"o":"m 523 663 q 614 541 614 629 q 528 403 614 450 q 340 361 452 361 q 123 405 220 361 q 73 422 83 422 q 44 406 63 422 l 24 416 l 98 571 l 119 563 q 116 552 116 556 q 184 491 116 518 q 338 464 253 464 q 439 485 402 464 q 476 541 476 505 q 344 614 476 614 q 287 608 301 614 q 268 586 272 603 l 246 586 l 246 729 l 268 729 q 286 705 273 710 q 342 700 298 700 q 432 718 399 700 q 464 766 464 735 q 432 815 464 798 q 339 833 399 833 q 215 811 273 833 q 157 766 157 790 q 164 746 157 758 l 146 733 l 41 853 l 58 866 q 82 859 75 859 q 103 867 90 859 q 349 935 212 935 q 510 901 444 935 q 591 774 591 858 q 523 663 591 702 m 1242 926 l 1242 904 q 1196 887 1208 899 q 1141 808 1184 876 l 722 103 q 705 62 705 75 q 719 35 705 45 q 758 22 733 24 l 758 0 l 473 0 l 473 22 q 523 43 507 28 q 576 119 540 59 l 989 808 q 1010 858 1010 842 q 995 887 1010 874 q 958 904 980 901 l 958 926 l 1242 926 m 1472 92 l 1165 92 q 1134 88 1141 92 q 1124 66 1127 84 l 1102 66 l 1102 189 l 1398 495 q 1416 521 1416 514 q 1394 534 1416 531 l 1394 555 l 1635 555 l 1635 534 q 1613 525 1619 530 q 1607 509 1607 520 l 1607 191 l 1636 191 q 1653 196 1648 191 q 1664 217 1659 201 l 1685 217 l 1685 66 l 1664 66 q 1653 87 1659 82 q 1636 92 1648 92 l 1607 92 l 1607 47 q 1613 30 1607 35 q 1635 21 1618 25 l 1635 0 l 1444 0 l 1444 21 q 1467 30 1461 25 q 1472 47 1472 35 l 1472 92 m 1472 191 l 1472 415 l 1259 191 l 1472 191 z "},"Ð":{"ha":1164,"x_min":12,"x_max":1103,"o":"m 127 412 l 83 412 q 51 403 62 412 q 33 368 41 393 l 12 368 l 12 590 l 33 590 q 51 556 41 565 q 83 547 62 547 l 127 547 l 127 854 q 118 886 127 876 q 84 904 109 897 l 84 926 l 600 926 q 861 887 770 926 q 1054 701 991 831 q 1103 463 1103 600 q 956 98 1103 223 q 811 23 894 45 q 600 0 728 0 l 84 0 l 84 22 q 118 39 109 28 q 127 71 127 50 l 127 412 m 330 547 l 536 547 q 568 556 557 547 q 585 590 578 566 l 607 590 l 607 368 l 585 368 q 568 402 578 393 q 536 412 557 412 l 330 412 l 330 153 l 583 153 q 766 186 705 153 q 897 463 897 257 q 826 692 897 612 q 731 754 787 736 q 583 773 675 773 l 330 773 l 330 547 z "},"×":{"ha":1065,"x_min":174,"x_max":890,"o":"m 532 369 l 345 182 q 331 153 331 168 q 344 119 331 140 l 330 104 l 174 260 l 189 275 q 222 262 210 262 q 251 275 237 262 l 439 463 l 251 650 q 222 664 237 664 q 189 652 210 664 l 174 666 l 330 821 l 344 807 q 331 773 331 785 q 345 745 331 758 l 532 557 l 720 744 q 734 773 734 758 q 721 807 734 785 l 735 821 l 890 666 l 877 652 q 842 665 855 665 q 814 650 828 665 l 627 463 l 814 275 q 842 262 828 262 q 877 275 854 262 l 890 260 l 735 104 l 721 119 q 734 153 734 140 q 720 182 734 168 l 532 369 z "},"Ý":{"ha":990,"x_min":-18,"x_max":1008,"o":"m 596 387 l 596 71 q 606 39 596 50 q 640 22 616 28 l 640 0 l 349 0 l 349 22 q 384 39 374 28 q 394 71 394 50 l 394 387 l 95 808 q 34 881 56 863 q -18 904 12 900 l -18 926 l 347 926 l 347 904 q 302 862 302 897 q 330 808 302 850 l 496 560 l 668 808 q 696 863 696 848 q 684 889 696 878 q 650 904 671 901 l 650 926 l 1008 926 l 1008 904 q 956 881 978 900 q 895 808 934 863 l 596 387 m 677 1197 l 677 1179 q 637 1160 650 1178 l 541 1042 q 536 1031 536 1038 q 551 1021 536 1021 q 553 1021 551 1021 l 553 1002 l 406 1002 l 406 1021 q 429 1025 422 1021 q 442 1045 436 1030 l 487 1156 q 490 1166 490 1162 q 471 1179 490 1177 l 471 1197 l 677 1197 z "},"Þ":{"ha":994,"x_min":83,"x_max":956,"o":"m 329 787 l 592 787 q 752 774 693 787 q 857 727 812 760 q 930 635 904 692 q 956 512 956 578 q 906 348 956 418 q 791 262 863 288 q 592 237 720 237 l 329 237 l 329 71 q 339 39 329 50 q 372 22 349 28 l 372 0 l 83 0 l 83 22 q 117 39 108 28 q 127 71 127 50 l 127 855 q 117 886 127 876 q 83 904 108 897 l 83 926 l 372 926 l 372 904 q 338 887 348 898 q 329 855 329 876 l 329 787 m 329 389 l 573 389 q 701 409 665 389 q 740 450 726 422 q 754 512 754 478 q 740 574 754 546 q 701 615 726 602 q 573 635 665 635 l 329 635 l 329 389 z "},"ð":{"ha":992,"x_min":18,"x_max":943,"o":"m 125 340 l 89 340 q 57 331 68 340 q 40 297 46 321 l 18 297 l 18 500 l 40 500 q 57 466 46 476 q 89 456 68 456 l 125 456 l 125 690 q 115 722 125 711 q 81 741 106 733 l 81 760 l 527 760 q 746 725 666 760 q 908 564 859 676 q 943 380 943 484 q 827 85 943 185 q 704 20 774 40 q 527 0 633 0 l 81 0 l 81 19 q 115 37 105 25 q 125 69 125 48 l 125 340 m 307 456 l 448 456 q 480 466 469 456 q 498 500 491 475 l 519 500 l 519 297 l 498 297 q 480 331 491 321 q 448 340 469 340 l 307 340 l 307 138 l 500 138 q 694 199 634 138 q 758 380 758 262 q 694 560 758 496 q 617 607 663 593 q 500 622 571 622 l 307 622 l 307 456 z "},"ý":{"ha":831,"x_min":-15,"x_max":846,"o":"m 507 333 l 507 69 q 516 37 507 48 q 550 18 526 26 l 550 0 l 281 0 l 281 18 q 315 36 306 25 q 325 69 325 47 l 325 333 l 100 643 q 39 714 62 695 q -15 741 16 734 l -15 760 l 327 760 l 327 741 q 283 699 283 729 q 315 640 283 684 l 425 486 l 533 640 q 565 700 565 685 q 522 741 565 728 l 521 760 l 846 760 l 846 741 q 792 714 815 734 q 732 643 770 695 l 507 333 m 606 1040 l 606 1021 q 566 1003 580 1021 l 470 885 q 466 874 466 880 q 480 863 466 863 q 483 863 481 863 l 483 845 l 336 845 l 336 863 q 359 868 352 863 q 372 888 366 873 l 416 998 q 419 1008 419 1004 q 400 1021 419 1019 l 400 1040 l 606 1040 z "},"þ":{"ha":840,"x_min":66,"x_max":806,"o":"m 292 639 l 492 639 q 714 595 640 639 q 782 522 758 569 q 806 415 806 474 q 729 247 806 302 q 492 191 651 191 l 292 191 l 292 69 q 301 37 292 48 q 335 18 311 26 l 335 0 l 66 0 l 66 19 q 100 37 90 25 q 110 69 110 48 l 110 690 q 100 722 110 711 q 66 741 91 733 l 66 760 l 335 760 l 335 741 q 301 723 311 734 q 292 690 292 711 l 292 639 m 292 329 l 486 329 q 585 342 557 329 q 626 415 626 363 q 585 488 626 468 q 486 501 558 501 l 292 501 l 292 329 z "},"Š":{"ha":1000,"x_min":56,"x_max":945,"o":"m 945 848 l 834 630 l 815 641 q 816 652 816 648 q 777 701 816 675 q 493 785 656 785 q 366 768 421 785 q 301 727 326 754 q 277 668 277 700 q 340 597 277 616 q 479 576 372 587 l 586 566 q 740 538 681 555 q 844 488 798 520 q 917 401 890 455 q 943 285 943 347 q 880 111 943 187 q 703 9 823 42 q 511 -16 614 -16 q 149 72 328 -16 q 103 90 111 90 q 75 75 94 90 l 56 85 l 156 312 l 176 302 q 176 294 176 296 q 205 237 176 263 q 341 170 249 198 q 516 141 433 141 q 670 172 606 141 q 726 217 705 189 q 747 275 747 245 q 698 341 747 321 q 558 366 663 355 l 454 377 q 305 398 349 388 q 218 429 262 408 q 121 521 157 460 q 90 647 90 576 q 170 841 90 764 q 488 942 276 942 q 653 924 576 942 q 844 858 730 906 q 892 842 884 842 q 926 858 907 842 l 945 848 m 589 1197 l 758 1197 l 758 1179 q 737 1175 742 1178 q 711 1150 732 1172 l 621 1049 q 613 1032 613 1041 q 635 1021 613 1021 l 635 1002 l 421 1002 l 421 1021 q 441 1033 441 1023 q 431 1053 441 1040 l 329 1165 q 298 1179 318 1178 l 298 1197 l 493 1197 l 493 1179 q 472 1168 472 1177 q 483 1153 472 1166 l 540 1082 l 603 1155 q 608 1167 608 1161 q 589 1179 608 1177 l 589 1197 z "},"š":{"ha":855,"x_min":45,"x_max":811,"o":"m 797 691 l 705 514 l 689 523 q 675 558 689 545 q 561 615 636 593 q 408 637 486 637 q 292 619 342 637 q 218 543 218 593 q 254 495 218 509 q 390 473 289 481 l 497 465 q 711 411 637 454 q 778 346 751 387 q 811 231 811 295 q 707 48 811 115 q 437 -16 607 -16 q 105 56 265 -16 q 87 61 94 61 q 62 45 73 61 l 45 52 l 123 237 l 140 231 q 140 225 140 227 q 153 195 140 208 q 271 143 187 165 q 435 121 354 121 q 564 140 507 121 q 635 215 635 163 q 586 273 635 256 q 469 291 553 283 l 362 300 q 231 317 276 307 q 151 349 185 328 q 83 423 108 376 q 59 526 59 470 q 166 716 59 650 q 408 776 264 776 q 553 759 486 776 q 714 698 621 741 q 753 685 742 685 q 781 700 764 685 l 797 691 m 498 1040 l 667 1040 l 667 1021 q 646 1018 651 1021 q 621 993 641 1015 l 530 892 q 522 875 522 884 q 545 863 522 863 l 545 845 l 330 845 l 330 863 q 351 876 351 865 q 340 895 351 883 l 238 1008 q 208 1021 227 1021 l 208 1040 l 402 1040 l 402 1021 q 381 1011 381 1019 q 392 996 381 1008 l 449 926 l 512 998 q 517 1010 517 1004 q 498 1021 517 1020 l 498 1040 z "},"¤":{"ha":1065,"x_min":29,"x_max":1036,"o":"m 885 208 l 954 138 q 986 123 970 123 q 1020 134 1000 123 l 1036 119 l 876 -40 l 861 -24 q 873 9 873 -4 q 857 41 873 25 l 775 122 q 533 67 667 67 q 289 122 396 67 l 208 41 q 192 9 192 25 q 204 -24 192 -4 l 189 -40 l 29 119 l 45 134 q 78 123 65 123 q 110 138 94 123 l 180 208 q 106 463 106 314 q 180 718 106 611 l 110 787 q 78 804 94 804 q 45 791 65 804 l 29 807 l 189 966 l 204 951 q 192 917 192 930 q 208 885 192 901 l 290 804 q 533 859 395 859 q 775 803 671 859 l 857 885 q 873 917 873 901 q 861 951 873 930 l 876 966 l 1036 807 l 1020 791 q 987 804 999 804 q 954 787 970 804 l 886 719 q 959 463 959 614 q 885 208 959 313 m 532 715 q 355 640 423 715 q 291 463 291 570 q 355 287 291 357 q 532 211 423 211 q 710 287 642 211 q 774 460 774 356 q 710 640 774 570 q 532 715 643 713 z "}}}
